<svg width="97" height="47" viewBox="0 0 97 47" fill="none" xmlns="http://www.w3.org/2000/svg">
<path d="M0.436035 40.4486C0.636035 38.7486 0.536035 37.0486 0.936035 35.4486C1.53604 33.1486 2.33604 30.8486 3.53604 28.7486C10.836 15.7486 21.436 6.1486 35.736 2.1486C50.336 -1.8514 64.136 1.34859 75.636 11.7486C81.436 16.9486 85.836 23.2486 89.236 30.2486C89.836 31.5486 90.436 32.7486 91.536 34.8486C92.836 31.9486 93.836 29.7486 94.836 27.4486C95.136 27.5486 95.436 27.5486 95.836 27.6486C95.936 28.3486 96.236 29.0486 96.136 29.7486C95.836 33.2486 95.436 36.7486 95.036 40.2486C94.736 42.5486 94.536 44.9486 92.036 45.9486C89.436 47.0486 87.236 45.5486 85.536 43.8486C83.236 41.4486 81.136 38.7486 79.136 36.0486C78.736 35.4486 79.136 34.3486 79.136 33.4486C80.036 33.4486 81.136 33.1486 81.736 33.5486C83.536 34.8486 85.036 36.4486 86.736 38.0486C86.836 37.7486 87.036 37.5486 86.936 37.4486C79.136 15.4486 63.136 2.3486 40.336 4.6486C39.236 4.7486 38.136 4.9486 37.036 5.3486C21.736 10.2486 10.436 19.7486 3.53604 34.3486C2.63604 36.2486 2.23603 38.4486 1.63603 40.5486C1.23603 40.5486 0.836035 40.4486 0.436035 40.4486Z" fill="white"/>
</svg>
