<svg width="60" height="60" viewBox="0 0 60 60" fill="none" xmlns="http://www.w3.org/2000/svg">
<path d="M39.7714 36.3H33.0857L34.4785 31.6714C34.9046 30.2874 34.7706 28.7915 34.1055 27.5053C33.4403 26.219 32.297 25.2451 30.9214 24.7928C30.5263 24.6626 30.1086 24.6154 29.6944 24.6541C29.2803 24.6928 28.8785 24.8166 28.5144 25.0177C28.1503 25.2189 27.8317 25.4931 27.5785 25.8231C27.3252 26.1531 27.1429 26.5319 27.0428 26.9357L26.8285 27.8357C26.0204 31.0787 24.3465 34.0413 21.9857 36.4071L20.7643 37.6071C20.4539 37.2161 20.0599 36.8997 19.6112 36.6809C19.1625 36.4621 18.6706 36.3466 18.1714 36.3428H16.6071C15.7279 36.3427 14.8841 36.6891 14.2584 37.3067C13.6327 37.9244 13.2755 38.7637 13.2643 39.6428V53.4428C13.2643 54.3294 13.6165 55.1797 14.2434 55.8066C14.8703 56.4335 15.7205 56.7857 16.6071 56.7857H18.1714C18.7468 56.7844 19.312 56.6336 19.8116 56.3481C20.3113 56.0626 20.7281 55.6522 21.0214 55.1571L21.3214 55.3071C23.2581 56.2742 25.3923 56.7803 27.5571 56.7857H35.25C36.5217 56.7918 37.7751 56.4817 38.8973 55.8832C40.0194 55.2848 40.9752 54.4167 41.6786 53.3571C43.1756 51.1186 43.9737 48.4858 43.9714 45.7928V40.4571C43.9714 39.9076 43.8625 39.3635 43.6509 38.8563C43.4393 38.3491 43.1293 37.8889 42.7387 37.5023C42.3481 37.1157 41.8848 36.8104 41.3754 36.604C40.8661 36.3976 40.3209 36.2943 39.7714 36.3ZM19.2857 53.4428C19.2857 53.7611 19.1593 54.0663 18.9342 54.2913C18.7092 54.5164 18.4039 54.6428 18.0857 54.6428H16.6071C16.2889 54.6428 15.9836 54.5164 15.7586 54.2913C15.5335 54.0663 15.4071 53.7611 15.4071 53.4428V39.6428C15.4071 39.3246 15.5335 39.0193 15.7586 38.7943C15.9836 38.5692 16.2889 38.4428 16.6071 38.4428H18.1714C18.4746 38.4645 18.7582 38.6005 18.965 38.8232C19.1719 39.0459 19.2865 39.3389 19.2857 39.6428V53.4428ZM41.7857 45.7928C41.7946 48.0795 41.1233 50.3172 39.8571 52.2214C39.3505 52.9788 38.6652 53.5998 37.8617 54.0296C37.0582 54.4594 36.1612 54.6847 35.25 54.6857H27.5571C25.7276 54.6839 23.9233 54.2585 22.2857 53.4428L21.4285 53.0142V39.8571L23.4 37.8857C26.0376 35.2485 27.9112 31.9457 28.8214 28.3285L29.0357 27.45C29.0993 27.2149 29.2534 27.0146 29.4643 26.8928C29.5724 26.8456 29.6891 26.8213 29.8071 26.8213C29.9251 26.8213 30.0418 26.8456 30.15 26.8928C30.5723 27.0332 30.9627 27.2555 31.299 27.547C31.6353 27.8385 31.9109 28.1934 32.1099 28.5914C32.3089 28.9895 32.4275 29.4228 32.4589 29.8668C32.4903 30.3107 32.4339 30.7564 32.2928 31.1785L30.4928 37.2C30.4463 37.3596 30.4375 37.528 30.4673 37.6916C30.497 37.8553 30.5645 38.0098 30.6643 38.1428C30.7616 38.2785 30.8905 38.3884 31.0399 38.463C31.1892 38.5377 31.3545 38.5749 31.5214 38.5714H39.6428C39.9074 38.5714 40.1693 38.6235 40.4137 38.7247C40.6581 38.8259 40.8801 38.9743 41.0672 39.1614C41.2542 39.3484 41.4026 39.5705 41.5038 39.8148C41.605 40.0592 41.6571 40.3212 41.6571 40.5857L41.7857 45.7928ZM23.5714 15.6428L22.8857 19.6071C22.8032 20.0458 22.8482 20.499 23.0153 20.9129C23.1824 21.3269 23.4646 21.6843 23.8285 21.9428C24.2314 22.2431 24.719 22.4082 25.2214 22.4142C25.6093 22.4081 25.9905 22.3128 26.3357 22.1357L30 20.25L33.5785 22.1357C33.972 22.3435 34.4163 22.4356 34.86 22.4015C35.3037 22.3674 35.7286 22.2083 36.0857 21.9428C36.4459 21.686 36.7257 21.3321 36.8927 20.9224C37.0596 20.5127 37.1067 20.064 37.0285 19.6285L36.4285 15.6428L39.2357 12.8571C39.5599 12.5505 39.7904 12.1582 39.9004 11.7257C40.0104 11.2933 39.9954 10.8385 39.8571 10.4142C39.7187 9.99044 39.4649 9.61359 39.1242 9.32594C38.7836 9.03828 38.3696 8.8512 37.9286 8.78567L33.9214 8.2071L32.1428 4.54282C31.9428 4.14614 31.6365 3.81278 31.2582 3.57987C30.8798 3.34696 30.4443 3.22363 30 3.22363C29.5557 3.22363 29.1201 3.34696 28.7418 3.57987C28.3635 3.81278 28.0572 4.14614 27.8571 4.54282L26.0785 8.16425L22.0714 8.74282C21.6304 8.80835 21.2164 8.99543 20.8757 9.28308C20.5351 9.57073 20.2813 9.94759 20.1428 10.3714C19.9957 10.8015 19.9761 11.265 20.0863 11.7061C20.1966 12.1471 20.432 12.5468 20.7643 12.8571L23.5714 15.6428ZM22.2857 10.8642L26.85 10.2C27.0561 10.2133 27.2617 10.1655 27.4408 10.0626C27.62 9.9597 27.7648 9.80622 27.8571 9.62139L30 5.48567C30.0188 5.44464 30.049 5.40987 30.087 5.38549C30.1249 5.36112 30.1691 5.34816 30.2143 5.34816C30.2594 5.34816 30.3036 5.36112 30.3416 5.38549C30.3796 5.40987 30.4097 5.44464 30.4285 5.48567L32.5714 9.62139C32.6484 9.77786 32.7632 9.9127 32.9053 10.0137C33.0475 10.1147 33.2126 10.1787 33.3857 10.2L37.95 10.8642C37.9944 10.8733 38.0356 10.8939 38.0695 10.924C38.1033 10.9541 38.1286 10.9926 38.1428 11.0357C38.1635 11.0715 38.1744 11.1122 38.1744 11.1535C38.1744 11.1949 38.1635 11.2356 38.1428 11.2714L34.8428 14.4857C34.718 14.6104 34.624 14.7625 34.5682 14.9299C34.5124 15.0972 34.4964 15.2753 34.5214 15.45L35.3143 19.9714C35.3288 20.017 35.3259 20.0663 35.3061 20.1099C35.2863 20.1535 35.251 20.1881 35.2071 20.2071C35.17 20.2349 35.1249 20.25 35.0785 20.25C35.0322 20.25 34.9871 20.2349 34.95 20.2071L30.8785 18.0642C30.728 17.9798 30.5583 17.9354 30.3857 17.9354C30.2131 17.9354 30.0434 17.9798 29.8928 18.0642L25.8 20.2071C25.7662 20.2332 25.7248 20.2473 25.6821 20.2473C25.6395 20.2473 25.598 20.2332 25.5643 20.2071C25.5203 20.1881 25.4851 20.1535 25.4653 20.1099C25.4454 20.0663 25.4426 20.017 25.4571 19.9714L26.25 15.45C26.275 15.2753 26.259 15.0972 26.2032 14.9299C26.1474 14.7625 26.0533 14.6104 25.9285 14.4857L22.6285 11.2714C22.6079 11.2356 22.597 11.1949 22.597 11.1535C22.597 11.1122 22.6079 11.0715 22.6285 11.0357C22.5729 11.0388 22.5177 11.0238 22.4713 10.9929C22.425 10.962 22.3899 10.9168 22.3714 10.8642H22.2857ZM15.7285 28.3928C16.0477 28.3986 16.3642 28.3331 16.6548 28.2009C16.9454 28.0687 17.2028 27.8733 17.4082 27.6289C17.6136 27.3845 17.7617 27.0973 17.8419 26.7883C17.922 26.4793 17.9321 26.1562 17.8714 25.8428L17.2928 22.5857L19.6928 20.25C19.9952 19.9725 20.2115 19.614 20.3161 19.2171C20.4207 18.8202 20.409 18.4017 20.2827 18.0112C20.1563 17.6208 19.9204 17.2748 19.6031 17.0145C19.2858 16.7542 18.9005 16.5905 18.4928 16.5428L15.2143 16.0714L13.7357 13.0928C13.5384 12.7501 13.2543 12.4654 12.9119 12.2675C12.5696 12.0695 12.1811 11.9653 11.7857 11.9653C11.3902 11.9653 11.0018 12.0695 10.6594 12.2675C10.3171 12.4654 10.033 12.7501 9.83569 13.0928L8.35712 16.0714L5.07854 16.5428C4.67091 16.5905 4.28555 16.7542 3.96826 17.0145C3.65097 17.2748 3.41511 17.6208 3.28872 18.0112C3.16233 18.4017 3.15072 18.8202 3.25528 19.2171C3.35984 19.614 3.57617 19.9725 3.87854 20.25L6.25712 22.5857L5.67854 25.8428C5.60431 26.2466 5.64765 26.6633 5.8034 27.0432C5.95916 27.4231 6.22077 27.7502 6.55712 27.9857C6.88562 28.2258 7.2757 28.3674 7.68174 28.394C8.08778 28.4205 8.49298 28.3309 8.84997 28.1357L11.7857 26.5928L14.7214 28.1357C15.0309 28.3027 15.3768 28.3911 15.7285 28.3928ZM11.7857 24.3214C11.613 24.3203 11.443 24.3647 11.2928 24.45L7.79997 26.2071L8.5714 22.3928C8.58333 22.2094 8.55056 22.0258 8.47591 21.8579C8.40126 21.6899 8.28696 21.5426 8.14283 21.4285L5.37854 18.6642L9.23569 18.1071C9.40622 18.0863 9.56859 18.0222 9.70737 17.9209C9.84614 17.8197 9.9567 17.6846 10.0285 17.5285L11.8071 14.0357L13.5428 17.5285C13.6147 17.6846 13.7252 17.8197 13.864 17.9209C14.0028 18.0222 14.1652 18.0863 14.3357 18.1071L18.1928 18.7285L15.4285 21.4285C15.3037 21.5532 15.2097 21.7053 15.1539 21.8727C15.0981 22.0401 15.0821 22.2182 15.1071 22.3928L15.7285 26.25L12.2785 24.45C12.1284 24.3647 11.9584 24.3203 11.7857 24.3214ZM56.6786 18.0214C56.5561 17.6336 56.3259 17.2887 56.0148 17.0268C55.7036 16.765 55.3244 16.5972 54.9214 16.5428L51.6428 16.0714L50.1643 13.0928C49.967 12.7501 49.6829 12.4654 49.3405 12.2675C48.9982 12.0695 48.6097 11.9653 48.2143 11.9653C47.8188 11.9653 47.4304 12.0695 47.088 12.2675C46.7457 12.4654 46.4615 12.7501 46.2643 13.0928L44.7857 16.0714L41.5071 16.5428C41.0995 16.5905 40.7141 16.7542 40.3968 17.0145C40.0795 17.2748 39.8437 17.6208 39.7173 18.0112C39.5909 18.4017 39.5793 18.8202 39.6839 19.2171C39.7884 19.614 40.0047 19.9725 40.3071 20.25L42.6857 22.5857L42.1071 25.8428C42.0329 26.2466 42.0762 26.6633 42.232 27.0432C42.3877 27.4231 42.6493 27.7502 42.9857 27.9857C43.3142 28.2258 43.7043 28.3674 44.1103 28.394C44.5163 28.4205 44.9216 28.3309 45.2785 28.1357L48.2143 26.5928L51.15 28.1357C51.4595 28.3027 51.8054 28.3911 52.1571 28.3928C52.4763 28.3986 52.7928 28.3331 53.0834 28.2009C53.374 28.0687 53.6314 27.8733 53.8368 27.6289C54.0421 27.3845 54.1903 27.0973 54.2705 26.7883C54.3506 26.4793 54.3607 26.1562 54.3 25.8428L53.7214 22.5857L56.1 20.25C56.3985 19.9721 56.6115 19.6147 56.714 19.22C56.8165 18.8252 56.8042 18.4094 56.6786 18.0214ZM51.8571 21.4285C51.7323 21.5532 51.6383 21.7053 51.5825 21.8727C51.5267 22.0401 51.5107 22.2182 51.5357 22.3928L52.1571 26.25L48.7071 24.45C48.5566 24.3655 48.3869 24.3211 48.2143 24.3211C48.0417 24.3211 47.8719 24.3655 47.7214 24.45L44.2285 26.2071L45 22.3928C45.0119 22.2094 44.9791 22.0258 44.9045 21.8579C44.8298 21.6899 44.7155 21.5426 44.5714 21.4285L41.8071 18.6642L45.6643 18.1071C45.8348 18.0863 45.9972 18.0222 46.1359 17.9209C46.2747 17.8197 46.3853 17.6846 46.4571 17.5285L48.2357 14.0357L49.9714 17.5285C50.0432 17.6846 50.1538 17.8197 50.2926 17.9209C50.4314 18.0222 50.5937 18.0863 50.7643 18.1071L54.6214 18.7285L51.8571 21.4285Z" fill="#9E751A"/>
</svg>
