<svg width="60" height="60" viewBox="0 0 60 60" fill="none" xmlns="http://www.w3.org/2000/svg">
<path d="M58.8925 40.3821C58.8925 38.2457 58.0743 36.2275 56.6198 34.673V27.9639C56.6198 20.8639 53.8561 14.1821 48.8288 9.14572C43.7925 4.10936 37.1107 1.34572 29.9925 1.34572C15.3197 1.32754 3.37429 13.273 3.37429 27.9548V34.6639C1.91713 36.2116 1.10443 38.2564 1.10156 40.3821C1.10156 44.7639 4.47429 48.3639 8.75611 48.7185C9.19247 50.273 10.6016 51.4185 12.2925 51.4185C14.3288 51.4185 15.9834 49.7639 15.9834 47.7275V33.0366C15.9834 31.0003 14.3288 29.3457 12.2925 29.3457C10.8561 29.3457 9.62884 30.173 9.01065 31.373V27.9457C9.01065 16.3821 18.4197 6.96391 29.9834 6.96391C35.5743 6.96391 40.847 9.14572 44.8197 13.1094C48.7834 17.0912 50.9652 22.3548 50.9652 27.9457V31.3639C50.6584 30.7588 50.1904 30.2502 49.613 29.8941C49.0355 29.538 48.3709 29.3482 47.6925 29.3457C45.6561 29.3457 44.0016 31.0003 44.0016 33.0366V47.7275C44.0016 49.7639 45.6561 51.4185 47.6925 51.4185C49.3834 51.4185 50.7925 50.273 51.2288 48.7185C51.3379 48.7094 51.447 48.7003 51.5561 48.6821V49.7094C51.5561 52.3457 49.4107 54.4821 46.7834 54.4821H36.1107V54.2366C36.1107 53.0275 35.1288 52.0548 33.9198 52.0548H27.447C26.8684 52.0548 26.3134 52.2847 25.9042 52.6939C25.4951 53.103 25.2652 53.658 25.2652 54.2366V56.473C25.2652 57.0525 25.4948 57.6084 25.9037 58.019C26.3126 58.4296 26.8675 58.6615 27.447 58.6639H33.9198C35.1288 58.6639 36.1107 57.6821 36.1107 56.473V56.2366H46.7834C50.3834 56.2366 53.3107 53.3094 53.3107 49.7094V48.2639C56.5561 47.1185 58.8925 44.0185 58.8925 40.3821ZM33.9198 56.9185H27.447C27.2107 56.9185 27.0107 56.7185 27.0107 56.4821V54.2457C27.0107 54.0094 27.2016 53.8094 27.447 53.8094H33.9198C34.1652 53.8094 34.3561 54.0003 34.3561 54.2457V56.4821C34.3561 56.7185 34.1652 56.9185 33.9198 56.9185ZM2.85611 40.3821C2.85611 38.3639 3.7652 36.473 5.34702 35.2003C5.6652 34.9548 5.94702 34.7639 6.25611 34.6003C6.28338 34.5912 6.30156 34.573 6.32884 34.5639C6.59247 34.4185 6.8652 34.3003 7.14702 34.1912C7.20156 34.173 7.25611 34.1457 7.31065 34.1275C7.62884 34.0185 7.95611 33.9275 8.29247 33.873H8.30156L8.60156 33.8185H8.61974V46.9457C5.37429 46.5185 2.85611 43.7366 2.85611 40.3821ZM12.3016 31.1003C13.3743 31.1003 14.2379 31.973 14.2379 33.0366V47.7275C14.2379 48.8003 13.3652 49.6639 12.3016 49.6639C11.2834 49.6639 10.4652 48.8821 10.3834 47.8821V47.873L10.3652 32.9639C10.4107 31.9275 11.2561 31.1003 12.3016 31.1003ZM46.0652 11.8821C41.7561 7.59118 36.047 5.22754 29.9925 5.22754C17.4652 5.22754 7.27429 15.4275 7.27429 27.9548V32.3003C7.22884 32.3094 7.19247 32.3275 7.14702 32.3457C6.92884 32.4094 6.71974 32.4821 6.51065 32.5548C6.41065 32.5912 6.31065 32.6275 6.21065 32.673C5.98338 32.773 5.7652 32.8821 5.54702 33.0003C5.50156 33.0275 5.44702 33.0457 5.40156 33.073C5.31065 33.1275 5.21065 33.1821 5.12884 33.2275V27.9639C5.12884 14.2457 16.2834 3.09118 29.9925 3.09118C36.6379 3.09118 42.8925 5.68209 47.5925 10.3821C52.2925 15.0912 54.8743 21.3366 54.8743 27.9639V33.2275C54.7834 33.173 54.6925 33.1185 54.6016 33.073C54.5379 33.0366 54.4743 33.0094 54.4016 32.9821C54.1925 32.873 53.9834 32.773 53.7743 32.6821C53.6834 32.6457 53.5834 32.6094 53.4925 32.573C53.2925 32.4912 53.0834 32.4275 52.8743 32.3639C52.8198 32.3457 52.7743 32.3275 52.7198 32.3094V27.9639C52.7198 21.9003 50.3561 16.1912 46.0652 11.8821ZM47.7016 49.6639C46.6288 49.6639 45.7652 48.7912 45.7652 47.7275V33.0366C45.7652 31.9639 46.6379 31.1003 47.7016 31.1003C48.7561 31.1003 49.6197 31.9548 49.6379 33.0003L49.6288 47.8548C49.5561 48.8639 48.7197 49.6639 47.7016 49.6639ZM51.3925 46.9457V33.8185H51.4107C51.5379 33.8366 51.6561 33.8639 51.7743 33.8821C52.0834 33.9366 52.3925 34.0185 52.6925 34.1275C52.7379 34.1457 52.7834 34.1639 52.8379 34.1821C53.1198 34.2912 53.4016 34.4094 53.6652 34.5639C53.6925 34.5821 53.7197 34.5912 53.7561 34.6094C54.047 34.7639 54.3288 34.9548 54.6379 35.1912C55.4204 35.8113 56.0525 36.6004 56.487 37.4993C56.9215 38.3982 57.1471 39.3837 57.147 40.3821C57.147 43.7275 54.647 46.5094 51.3925 46.9457Z" fill="#9E751A"/>
<path d="M28.6528 40.4012C28.8175 40.598 29.0233 40.7562 29.2558 40.8648C29.4883 40.9733 29.7417 41.0296 29.9983 41.0296C30.2549 41.0296 30.5083 40.9733 30.7408 40.8648C30.9732 40.7562 31.1791 40.598 31.3438 40.4012L33.9801 37.2648H39.5165C40.971 37.2648 42.1528 36.083 42.1528 34.6285V22.1012C42.1528 20.6467 40.971 19.4648 39.5165 19.4648H20.4801C19.0256 19.4648 17.8438 20.6467 17.8438 22.1012V34.6376C17.8438 36.0921 19.0256 37.2739 20.4801 37.2739H26.0165L28.6528 40.4012ZM19.5983 34.6376V22.1012C19.5983 21.6103 19.9983 21.2194 20.4801 21.2194H39.5165C40.0074 21.2194 40.3983 21.6194 40.3983 22.1012V34.6376C40.3983 35.1285 39.9983 35.5194 39.5165 35.5194H33.571C33.3165 35.5194 33.071 35.6376 32.8983 35.8285L29.9983 39.2739L27.0983 35.8285C27.0163 35.7301 26.9133 35.6512 26.7969 35.5977C26.6805 35.5443 26.5537 35.5175 26.4256 35.5194H20.4801C20.2462 35.5194 20.0219 35.4265 19.8566 35.2611C19.6912 35.0957 19.5983 34.8714 19.5983 34.6376Z" fill="#9E751A"/>
<path d="M22.9821 25.6009H37.0185C37.2499 25.6009 37.4719 25.509 37.6356 25.3453C37.7992 25.1816 37.8912 24.9597 37.8912 24.7282C37.8912 24.4967 37.7992 24.2748 37.6356 24.1111C37.4719 23.9474 37.2499 23.8555 37.0185 23.8555H22.9821C22.7506 23.8555 22.5287 23.9474 22.365 24.1111C22.2013 24.2748 22.1094 24.4967 22.1094 24.7282C22.1094 24.9597 22.2013 25.1816 22.365 25.3453C22.5287 25.509 22.7506 25.6009 22.9821 25.6009ZM22.9821 29.3737H37.0185C37.2499 29.3737 37.4719 29.2817 37.6356 29.118C37.7992 28.9544 37.8912 28.7324 37.8912 28.5009C37.8912 28.2695 37.7992 28.0475 37.6356 27.8838C37.4719 27.7201 37.2499 27.6282 37.0185 27.6282H22.9821C22.7506 27.6282 22.5287 27.7201 22.365 27.8838C22.2013 28.0475 22.1094 28.2695 22.1094 28.5009C22.1094 28.7324 22.2013 28.9544 22.365 29.118C22.5287 29.2817 22.7506 29.3737 22.9821 29.3737ZM30.3548 32.2827C30.3548 32.0513 30.2629 31.8293 30.0992 31.6656C29.9355 31.502 29.7136 31.41 29.4821 31.41H22.9821C22.7506 31.41 22.5287 31.502 22.365 31.6656C22.2013 31.8293 22.1094 32.0513 22.1094 32.2827C22.1094 32.5142 22.2013 32.7362 22.365 32.8999C22.5287 33.0635 22.7506 33.1555 22.9821 33.1555H29.4821C29.9639 33.1555 30.3548 32.7646 30.3548 32.2827Z" fill="#9E751A"/>
</svg>
