<svg width="60" height="60" viewBox="0 0 60 60" fill="none" xmlns="http://www.w3.org/2000/svg">
<g clip-path="url(#clip0_4437_652)">
<path d="M51.2132 8.78684C45.5469 3.12059 38.0133 0 30 0C21.9867 0 14.4531 3.12059 8.78684 8.78684C3.12059 14.4531 0 21.9867 0 30C0 38.0133 3.12059 45.5469 8.78684 51.2132C14.4531 56.8794 21.9867 60 30 60C38.0133 60 45.5469 56.8794 51.2132 51.2132C56.8794 45.5469 60 38.0133 60 30C60 21.9867 56.8794 14.4531 51.2132 8.78684ZM49.5495 49.5495C44.3276 54.7713 37.3848 57.6471 30 57.6471C22.6152 57.6471 15.6724 54.7713 10.4505 49.5495C5.22867 44.3276 2.35289 37.3848 2.35289 30C2.35289 22.6152 5.22867 15.6724 10.4505 10.4505C15.6724 5.22867 22.6152 2.35289 30 2.35289C37.3848 2.35289 44.3276 5.22867 49.5495 10.4505C54.7713 15.6724 57.6471 22.6152 57.6471 30C57.6471 37.3848 54.7712 44.3276 49.5495 49.5495Z" fill="#9E751A"/>
<path d="M30 8.42188C18.1017 8.42188 8.42163 18.1019 8.42163 30.0002C8.42163 30.65 8.94839 31.1766 9.59808 31.1766C10.2478 31.1766 10.7746 30.65 10.7746 30.0002C10.7746 19.3993 19.3992 10.7749 30 10.7749C30.6498 10.7749 31.1764 10.2481 31.1764 9.59832C31.1764 8.94852 30.6496 8.42188 30 8.42188ZM50.4018 28.8238C49.752 28.8238 49.2254 29.3505 49.2254 30.0002C49.2254 40.6011 40.6009 49.2255 30.0001 49.2255C29.3503 49.2255 28.8236 49.7523 28.8236 50.402C28.8236 51.0518 29.3504 51.5784 30.0001 51.5784C41.8983 51.5784 51.5784 41.8985 51.5784 30.0001C51.5783 29.3504 51.0515 28.8238 50.4018 28.8238ZM31.6943 28.8236H28.3057C26.6663 28.8236 25.3326 27.4899 25.3326 25.8506V23.8796C25.3326 22.2403 26.6663 20.9066 28.3057 20.9066H32.0601C33.4978 20.9066 34.6673 22.0761 34.6673 23.5138C34.6673 24.1636 35.1941 24.6902 35.8437 24.6902C36.4934 24.6902 37.0202 24.1634 37.0202 23.5138C37.0202 20.7787 34.795 18.5537 32.0601 18.5537H31.1764V15.6325C31.1764 14.9827 30.6496 14.4561 30 14.4561C29.3501 14.4561 28.8235 14.9829 28.8235 15.6325V18.5537H28.3057C25.3689 18.5537 22.9797 20.9429 22.9797 23.8796V25.8506C22.9797 28.7873 25.3689 31.1765 28.3057 31.1765H31.6943C33.3336 31.1765 34.6673 32.5102 34.6673 34.1496V36.1205C34.6673 37.7599 33.3336 39.0936 31.6943 39.0936H27.9398C26.5021 39.0936 25.3326 37.9241 25.3326 36.4864C25.3326 35.8366 24.8059 35.31 24.1562 35.31C23.5065 35.31 22.9797 35.8367 22.9797 36.4864C22.9797 39.2214 25.2049 41.4465 27.9398 41.4465H28.8235V44.3676C28.8235 45.0174 29.3503 45.5441 30 45.5441C30.6498 45.5441 31.1764 45.0173 31.1764 44.3676V41.4465H31.6943C34.631 41.4465 37.0202 39.0573 37.0202 36.1205V34.1496C37.0202 31.2129 34.631 28.8236 31.6943 28.8236Z" fill="#9E751A"/>
<path d="M34.1549 11.4954C34.81 11.4954 35.3411 10.9643 35.3411 10.3092C35.3411 9.65411 34.81 9.12305 34.1549 9.12305C33.4998 9.12305 32.9688 9.65411 32.9688 10.3092C32.9688 10.9643 33.4998 11.4954 34.1549 11.4954Z" fill="#9E751A"/>
<path d="M25.8502 50.9954C26.5053 50.9954 27.0364 50.4643 27.0364 49.8092C27.0364 49.1541 26.5053 48.623 25.8502 48.623C25.1951 48.623 24.6641 49.1541 24.6641 49.8092C24.6641 50.4643 25.1951 50.9954 25.8502 50.9954Z" fill="#9E751A"/>
</g>
<defs>
<clipPath id="clip0_4437_652">
<rect width="60" height="60" fill="white"/>
</clipPath>
</defs>
</svg>
