<svg width="60" height="60" viewBox="0 0 60 60" fill="none" xmlns="http://www.w3.org/2000/svg">
<path d="M29.2171 58.0058C29.4706 58.0843 29.7345 58.1244 29.9999 58.1248C30.2589 58.1242 30.5163 58.0854 30.764 58.0095C34.533 56.9294 38.0945 55.2255 41.3005 52.9686C41.491 52.8205 41.6171 52.6046 41.6525 52.3658C41.6878 52.1271 41.6298 51.884 41.4904 51.687C41.351 51.49 41.141 51.3543 40.9041 51.3082C40.6673 51.2621 40.4217 51.3091 40.2186 51.4395C37.179 53.5773 33.8025 55.1906 30.2296 56.2123C30.0741 56.262 29.907 56.262 29.7515 56.2123C25.0848 54.8876 20.7692 52.5466 17.114 49.3573C17.023 49.2678 16.9148 49.1978 16.7959 49.1516C16.677 49.1053 16.5499 49.0838 16.4223 49.0885C16.2948 49.0931 16.1696 49.1236 16.0543 49.1783C15.939 49.233 15.8362 49.3107 15.7519 49.4065C15.6677 49.5024 15.6039 49.6144 15.5645 49.7358C15.5251 49.8571 15.5109 49.9852 15.5227 50.1123C15.5346 50.2393 15.5722 50.3626 15.6334 50.4746C15.6945 50.5866 15.7779 50.6849 15.8783 50.7636C19.7363 54.1315 24.2913 56.6046 29.2171 58.0058ZM5.22083 14.112C5.09876 14.0957 4.97466 14.1035 4.85563 14.1351C4.73659 14.1668 4.62496 14.2215 4.5271 14.2963C4.42924 14.3711 4.34708 14.4645 4.28531 14.571C4.22353 14.6776 4.18336 14.7952 4.16708 14.9173C3.50615 19.8589 2.71865 32.5311 9.65615 43.482C9.72201 43.586 9.80772 43.6761 9.90839 43.747C10.0091 43.8179 10.1227 43.8683 10.2428 43.8953C10.363 43.9223 10.4872 43.9253 10.6086 43.9043C10.7299 43.8832 10.8459 43.8385 10.9499 43.7726C11.0539 43.7068 11.144 43.6211 11.2149 43.5204C11.2858 43.4197 11.3362 43.3061 11.3632 43.186C11.3901 43.0658 11.3932 42.9415 11.3722 42.8202C11.3511 42.6989 11.3064 42.5829 11.2405 42.4789C4.63115 32.0501 5.39146 19.9039 6.02427 15.1658C6.05733 14.9195 5.99127 14.6702 5.84062 14.4726C5.68998 14.275 5.46705 14.1453 5.22083 14.112ZM12.224 45.5126C12.1279 45.5898 12.048 45.6852 11.9889 45.7933C11.9297 45.9014 11.8925 46.0201 11.8793 46.1426C11.866 46.2651 11.8771 46.3891 11.9118 46.5073C11.9465 46.6255 12.0041 46.7358 12.0815 46.8317C12.3627 47.1805 12.6636 47.5292 12.973 47.878C13.0547 47.9703 13.1538 48.0456 13.2646 48.0997C13.3754 48.1537 13.4958 48.1854 13.6188 48.1929C13.7419 48.2005 13.8652 48.1837 13.9818 48.1436C14.0983 48.1034 14.2058 48.0407 14.2982 47.959C14.3905 47.8774 14.4659 47.7783 14.5199 47.6675C14.574 47.5567 14.6056 47.4363 14.6132 47.3133C14.6207 47.1902 14.6039 47.0669 14.5638 46.9503C14.5237 46.8337 14.461 46.7262 14.3793 46.6339C14.0948 46.3134 13.8169 45.9871 13.5458 45.6551C13.4686 45.5587 13.3731 45.4785 13.2647 45.4191C13.1564 45.3597 13.0374 45.3223 12.9145 45.309C12.7917 45.2958 12.6674 45.307 12.5489 45.3419C12.4304 45.3768 12.32 45.4349 12.224 45.5126ZM53.4261 11.8301C50.0199 11.2373 46.6827 10.2997 43.4661 9.0317C39.2586 7.36641 35.2914 5.14884 31.6686 2.43733C31.1871 2.07521 30.601 1.87939 29.9985 1.87939C29.396 1.87939 28.8098 2.07521 28.3283 2.43733C26.5235 3.78749 24.6319 5.01764 22.6658 6.11983C22.5582 6.17993 22.4634 6.26067 22.387 6.35745C22.3106 6.45422 22.254 6.56511 22.2205 6.68378C22.187 6.80245 22.1773 6.92656 22.1918 7.049C22.2064 7.17144 22.2449 7.28981 22.3053 7.39734C22.3656 7.50486 22.4466 7.59941 22.5436 7.67559C22.6405 7.75178 22.7516 7.80808 22.8703 7.84129C22.989 7.8745 23.1132 7.88395 23.2356 7.86912C23.358 7.85428 23.4763 7.81544 23.5836 7.75483C25.6228 6.60953 27.5846 5.33147 29.4561 3.92889C29.6118 3.80923 29.8026 3.74436 29.999 3.74436C30.1953 3.74436 30.3861 3.80923 30.5418 3.92889C34.2989 6.74288 38.4137 9.04433 42.778 10.7726C46.1159 12.0892 49.5791 13.0629 53.114 13.6789C53.3063 13.7115 53.4831 13.8052 53.6181 13.9459C53.7532 14.0867 53.8394 14.2672 53.864 14.4608C54.4668 18.4226 55.3846 28.6995 50.8921 38.5208C50.8385 38.633 50.8078 38.7547 50.8018 38.879C50.7957 39.0032 50.8144 39.1273 50.8568 39.2442C50.8992 39.3611 50.9644 39.4684 51.0487 39.5599C51.133 39.6513 51.2346 39.7251 51.3476 39.7769C51.4607 39.8287 51.5829 39.8575 51.7072 39.8616C51.8315 39.8657 51.9553 39.8451 52.0716 39.8008C52.1878 39.7566 52.294 39.6897 52.3842 39.604C52.4743 39.5183 52.5464 39.4156 52.5965 39.3017C57.2999 29.0201 56.3465 18.3073 55.7183 14.1767C55.6333 13.5935 55.3657 13.0523 54.9538 12.6307C54.542 12.2091 54.0072 11.9288 53.4261 11.8301Z" fill="#9E751A"/>
<path d="M29.0951 51.4004C29.3849 51.5067 29.6911 51.5616 29.9998 51.5626C30.3036 51.5622 30.6051 51.5086 30.8904 51.4041C32.1838 50.9492 33.4448 50.407 34.6648 49.7813C34.7743 49.7249 34.8716 49.6475 34.9512 49.5535C35.0308 49.4595 35.0911 49.3508 35.1287 49.2335C35.1663 49.1162 35.1803 48.9926 35.1702 48.8699C35.16 48.7471 35.1257 48.6275 35.0693 48.518C35.0129 48.4085 34.9355 48.3112 34.8415 48.2316C34.7475 48.152 34.6388 48.0917 34.5215 48.0541C34.4042 48.0166 34.2806 48.0025 34.1578 48.0127C34.0351 48.0229 33.9155 48.0571 33.806 48.1135C32.6594 48.7031 31.4738 49.2136 30.2576 49.6416C30.0873 49.7082 29.8982 49.7082 29.7279 49.6416C25.5248 48.2017 21.7471 45.7364 18.7367 42.4688C11.6604 34.7523 11.037 24.421 11.2939 18.9694C11.3027 18.8241 11.3393 18.6819 11.4017 18.5504C11.4925 18.3291 11.4953 18.0814 11.4094 17.8581C11.3236 17.6349 11.1557 17.4528 10.94 17.3493C10.7244 17.2458 10.4773 17.2286 10.2494 17.3013C10.0215 17.374 9.83003 17.5311 9.71416 17.7404C9.54704 18.0935 9.44933 18.4754 9.42635 18.8654C9.15448 24.6282 9.82385 35.5238 17.3585 43.7401C20.5734 47.2291 24.6071 49.8619 29.0951 51.4004ZM47.2254 34.6876C47.3283 34.7259 47.4372 34.7456 47.547 34.7457C47.7391 34.7456 47.9267 34.6865 48.0841 34.5763C48.2416 34.4662 48.3614 34.3103 48.4273 34.1298C50.1353 29.2296 50.8647 24.0418 50.5742 18.8607C50.5561 18.4818 50.4631 18.1102 50.3006 17.7675C50.1381 17.4247 49.9092 17.1176 49.6273 16.8638C49.5379 16.7714 49.4306 16.6984 49.3118 16.6492C49.193 16.6001 49.0654 16.5759 48.9369 16.5781C48.8084 16.5804 48.6818 16.609 48.5648 16.6623C48.4478 16.7156 48.3431 16.7923 48.257 16.8878C48.1709 16.9832 48.1054 17.0954 48.0645 17.2172C48.0237 17.3391 48.0082 17.468 48.0193 17.5961C48.0303 17.7241 48.0676 17.8485 48.1288 17.9616C48.1899 18.0746 48.2737 18.1739 48.3748 18.2532C48.4729 18.3422 48.5524 18.4497 48.6087 18.5696C48.665 18.6895 48.697 18.8193 48.7029 18.9516C48.9819 23.8818 48.2911 28.8187 46.6695 33.4829C46.6268 33.5985 46.6073 33.7214 46.6121 33.8445C46.617 33.9676 46.6461 34.0886 46.6977 34.2005C46.7493 34.3124 46.8225 34.413 46.9131 34.4966C47.0036 34.5801 47.1098 34.645 47.2254 34.6876ZM29.6351 10.3894C29.7676 10.3292 29.9132 10.3033 30.0583 10.3141C30.2035 10.3249 30.3436 10.3721 30.4657 10.4513C33.1643 12.1931 36.005 13.7041 38.9576 14.9682C39.1844 15.0569 39.4368 15.0538 39.6614 14.9596C39.886 14.8654 40.0651 14.6876 40.1609 14.4637C40.2567 14.2397 40.2615 13.9873 40.1745 13.7599C40.0874 13.5325 39.9153 13.3478 39.6945 13.2451C36.8388 12.0213 34.0913 10.5593 31.481 8.87445C31.0982 8.62801 30.66 8.48066 30.2061 8.44564C29.7521 8.41061 29.2965 8.48903 28.8804 8.67382C28.6658 8.78145 28.5006 8.96731 28.419 9.1931C28.3374 9.41888 28.3455 9.66738 28.4417 9.88737C28.5378 10.1074 28.7147 10.2821 28.9359 10.3755C29.1571 10.4689 29.4057 10.4739 29.6304 10.3894H29.6351ZM44.5217 17.0391C44.6092 17.0655 44.7002 17.0788 44.7917 17.0785C45.0167 17.0783 45.2342 16.9972 45.4044 16.85C45.5745 16.7027 45.6861 16.4992 45.7186 16.2765C45.7511 16.0538 45.7025 15.8269 45.5815 15.6371C45.4606 15.4473 45.2754 15.3074 45.0598 15.2429C44.6033 15.1042 44.1506 14.9532 43.7023 14.7901C43.4683 14.7058 43.2104 14.7179 42.9854 14.8237C42.7604 14.9296 42.5866 15.1205 42.5023 15.3544C42.418 15.5884 42.4301 15.8463 42.5359 16.0713C42.6418 16.2964 42.8327 16.4702 43.0667 16.5544C43.5523 16.7288 44.037 16.8938 44.5217 17.0391Z" fill="#9E751A"/>
<path d="M24.9478 27.6384C24.3906 27.0924 23.6415 26.7866 22.8614 26.7866C22.0813 26.7866 21.3322 27.0924 20.775 27.6384L19.6013 28.8355C19.0551 29.3989 18.7497 30.1528 18.7497 30.9374C18.7497 31.7221 19.0551 32.4759 19.6013 33.0393L26.7844 40.3696C27.0557 40.6482 27.38 40.8695 27.7383 41.0207C28.0966 41.1719 28.4815 41.2498 28.8703 41.2498C29.2592 41.2498 29.6441 41.1719 30.0023 41.0207C30.3606 40.8695 30.6849 40.6482 30.9563 40.3696L44.1488 26.9062C44.6949 26.3428 45.0003 25.589 45.0003 24.8043C45.0003 24.0196 44.6949 23.2658 44.1488 22.7024L42.975 21.5052C42.7043 21.2261 42.3802 21.0043 42.022 20.853C41.6638 20.7018 41.2788 20.6242 40.89 20.6249C40.5009 20.6242 40.1156 20.7017 39.7571 20.853C39.3986 21.0042 39.0741 21.226 38.8031 21.5052L29.6156 30.8802C29.417 31.0767 29.1488 31.1869 28.8694 31.1869C28.59 31.1869 28.3218 31.0767 28.1231 30.8802L24.9478 27.6384ZM30.9563 32.1918L40.1437 22.8168C40.2405 22.7165 40.3566 22.6367 40.4848 22.5823C40.6131 22.5278 40.7511 22.4997 40.8905 22.4997C41.0299 22.4997 41.1678 22.5278 41.2961 22.5823C41.4244 22.6367 41.5404 22.7165 41.6372 22.8168L42.8109 24.0149C43.0162 24.2264 43.131 24.5096 43.131 24.8043C43.131 25.099 43.0162 25.3822 42.8109 25.5937L29.6166 39.058C29.4179 39.2545 29.1497 39.3647 28.8703 39.3647C28.5909 39.3647 28.3227 39.2545 28.1241 39.058L20.9409 31.7268C20.7357 31.5153 20.6209 31.2322 20.6209 30.9374C20.6209 30.6427 20.7357 30.3595 20.9409 30.148L22.1147 28.9499C22.3136 28.7536 22.5819 28.6435 22.8614 28.6435C23.1409 28.6435 23.4092 28.7536 23.6081 28.9499L26.7844 32.1918C27.3416 32.7375 28.0904 33.0431 28.8703 33.0431C29.6502 33.0431 30.3991 32.7375 30.9563 32.1918ZM8.4375 13.1249C8.43761 13.344 8.51447 13.5562 8.65473 13.7246C8.795 13.8929 8.9898 14.0068 9.20531 14.0465C15.15 15.1415 15.7959 15.7874 16.8928 21.734C16.933 21.949 17.0471 22.1433 17.2154 22.2831C17.3837 22.4228 17.5956 22.4994 17.8144 22.4994C18.0332 22.4994 18.245 22.4228 18.4133 22.2831C18.5817 22.1433 18.6958 21.949 18.7359 21.734C19.8309 15.7893 20.4769 15.1434 26.4234 14.0465C26.6385 14.0063 26.8327 13.8922 26.9725 13.7239C27.1123 13.5556 27.1888 13.3437 27.1888 13.1249C27.1888 12.9061 27.1123 12.6943 26.9725 12.5259C26.8327 12.3576 26.6385 12.2435 26.4234 12.2034C20.4787 11.1084 19.8328 10.4624 18.7359 4.51586C18.6958 4.3008 18.5817 4.10656 18.4133 3.96678C18.245 3.827 18.0332 3.75049 17.8144 3.75049C17.5956 3.75049 17.3837 3.827 17.2154 3.96678C17.0471 4.10656 16.933 4.3008 16.8928 4.51586C15.7978 10.4605 15.1519 11.1065 9.20531 12.2034C8.9898 12.243 8.795 12.3569 8.65473 12.5253C8.51447 12.6936 8.43761 12.9058 8.4375 13.1249ZM17.8125 8.71023C18.0909 9.7714 18.6465 10.7395 19.4222 11.5152C20.198 12.291 21.166 12.8465 22.2272 13.1249C21.166 13.4033 20.198 13.9589 19.4222 14.7346C18.6465 15.5104 18.0909 16.4784 17.8125 17.5396C17.5341 16.4784 16.9785 15.5104 16.2028 14.7346C15.427 13.9589 14.459 13.4033 13.3978 13.1249C14.459 12.8465 15.427 12.291 16.2028 11.5152C16.9785 10.7395 17.5341 9.7714 17.8125 8.71023ZM55.4822 45.9534C49.5375 44.8584 48.8916 44.2124 47.7947 38.2659C47.7545 38.0508 47.6404 37.8566 47.4721 37.7168C47.3038 37.577 47.0919 37.5005 46.8731 37.5005C46.6543 37.5005 46.4425 37.577 46.2742 37.7168C46.1059 37.8566 45.9917 38.0508 45.9516 38.2659C44.8566 44.2105 44.2106 44.8565 38.2641 45.9534C38.049 45.9935 37.8548 46.1076 37.715 46.2759C37.5752 46.4443 37.4987 46.6561 37.4987 46.8749C37.4987 47.0937 37.5752 47.3056 37.715 47.4739C37.8548 47.6422 38.049 47.7563 38.2641 47.7965C44.2087 48.8915 44.8547 49.5374 45.9516 55.484C45.9917 55.699 46.1059 55.8933 46.2742 56.0331C46.4425 56.1728 46.6543 56.2494 46.8731 56.2494C47.0919 56.2494 47.3038 56.1728 47.4721 56.0331C47.6404 55.8933 47.7545 55.699 47.7947 55.484C48.8897 49.5393 49.5356 48.8934 55.4822 47.7965C55.6972 47.7563 55.8915 47.6422 56.0313 47.4739C56.171 47.3056 56.2476 47.0937 56.2476 46.8749C56.2476 46.6561 56.171 46.4443 56.0313 46.2759C55.8915 46.1076 55.6972 45.9935 55.4822 45.9534ZM46.875 51.2896C46.5966 50.2284 46.041 49.2604 45.2653 48.4846C44.4895 47.7089 43.5215 47.1533 42.4603 46.8749C43.5215 46.5965 44.4895 46.041 45.2653 45.2652C46.041 44.4895 46.5966 43.5214 46.875 42.4602C47.1534 43.5214 47.709 44.4895 48.4847 45.2652C49.2605 46.041 50.2285 46.5965 51.2897 46.8749C50.2285 47.1533 49.2605 47.7089 48.4847 48.4846C47.709 49.2604 47.1534 50.2284 46.875 51.2896Z" fill="#9E751A"/>
</svg>
