<svg width="24" height="24" viewBox="0 0 24 24" fill="none" xmlns="http://www.w3.org/2000/svg">
<path d="M21.8245 8.47076C21.5263 8.17013 21.3583 7.76434 21.3567 7.34094V5.91416C21.3555 5.04678 21.0104 4.21528 20.3969 3.60205C19.7835 2.98883 18.9519 2.64395 18.0845 2.64306H16.66C16.4502 2.64361 16.2423 2.60266 16.0484 2.52257C15.8545 2.44248 15.6784 2.32484 15.5301 2.1764L14.3132 0.958388C13.6992 0.345909 12.8673 0.00195313 12 0.00195312C11.1327 0.00195313 10.3009 0.345909 9.68681 0.958388L8.46992 2.1764C8.32176 2.32504 8.14566 2.44289 7.95175 2.52318C7.75785 2.60346 7.54997 2.64458 7.34011 2.64418H5.91444C5.04706 2.64506 4.21544 2.98994 3.60201 3.60317C2.98857 4.2164 2.64341 5.0479 2.64222 5.91528V7.34094C2.64109 7.76389 2.47344 8.16938 2.17556 8.46964L0.956435 9.68765C0.343956 10.3017 0 11.1336 0 12.0009C0 12.8681 0.343956 13.7 0.956435 14.3141L2.17556 15.531C2.47371 15.8316 2.64172 16.2374 2.64334 16.6608V18.0876C2.64452 18.9549 2.98969 19.7864 3.60312 20.3997C4.21656 21.0129 5.04818 21.3578 5.91556 21.3587H7.34011C7.54997 21.3583 7.75785 21.3994 7.95175 21.4797C8.14566 21.56 8.32176 21.6778 8.46992 21.8264L9.68681 23.0445C10.3007 23.6572 11.1327 24.0014 12 24.0014C12.8674 24.0014 13.6993 23.6572 14.3132 23.0445L15.5301 21.8264C15.6783 21.6778 15.8544 21.56 16.0483 21.4797C16.2422 21.3994 16.4501 21.3583 16.66 21.3587H18.0856C18.953 21.3578 19.7846 21.0129 20.398 20.3997C21.0115 19.7864 21.3566 18.9549 21.3578 18.0876V16.6608C21.3588 16.2376 21.5269 15.8319 21.8256 15.5321L23.0436 14.3141C23.6561 13.7 24.0001 12.8681 24.0001 12.0009C24.0001 11.1336 23.6561 10.3017 23.0436 9.68765L21.8245 8.47076Z" fill="#9E751A"/>
<path d="M12.0043 19.5359C16.166 19.5359 19.5398 16.1621 19.5398 12.0004C19.5398 7.83862 16.166 4.46484 12.0043 4.46484C7.84252 4.46484 4.46875 7.83862 4.46875 12.0004C4.46875 16.1621 7.84252 19.5359 12.0043 19.5359Z" fill="white"/>
<path d="M10.8851 15.0703C10.7751 15.0706 10.6662 15.049 10.5646 15.0069C10.463 14.9647 10.3709 14.9028 10.2934 14.8247L8.06066 12.592C7.91276 12.4333 7.83224 12.2233 7.83607 12.0064C7.8399 11.7895 7.92777 11.5826 8.08117 11.4292C8.23458 11.2758 8.44154 11.1879 8.65845 11.1841C8.87536 11.1802 9.08529 11.2607 9.24401 11.4086L10.8851 13.0486L14.7589 9.17589C14.9176 9.02799 15.1276 8.94748 15.3445 8.9513C15.5614 8.95513 15.7683 9.043 15.9217 9.19641C16.0751 9.34981 16.163 9.55677 16.1668 9.77368C16.1707 9.9906 16.0902 10.2005 15.9423 10.3592L11.4768 14.8247C11.3993 14.9028 11.3071 14.9647 11.2056 15.0069C11.104 15.049 10.9951 15.0706 10.8851 15.0703Z" fill="#9E751A"/>
</svg>
