<svg width="29" height="29" viewBox="0 0 29 29" fill="none" xmlns="http://www.w3.org/2000/svg">
<g clip-path="url(#clip0_0_982)">
<path d="M25.587 10.5559C25.2392 10.2052 25.0432 9.73178 25.0413 9.23781V7.57323C25.0399 6.56129 24.6372 5.59121 23.9215 4.87578C23.2059 4.16035 22.2356 3.75798 21.2237 3.75695H19.5617C19.317 3.75759 19.0745 3.70982 18.8483 3.61638C18.6221 3.52295 18.4166 3.38569 18.2436 3.21251L16.8239 1.7915C16.1075 1.07694 15.137 0.675659 14.1252 0.675659C13.1133 0.675659 12.1428 1.07694 11.4264 1.7915L10.0067 3.21251C9.83384 3.38592 9.62839 3.52342 9.40216 3.61708C9.17594 3.71075 8.93342 3.75873 8.68858 3.75825H7.0253C6.01336 3.75929 5.04314 4.16165 4.32746 4.87708C3.61179 5.59251 3.2091 6.56259 3.20772 7.57454V9.23781C3.20639 9.73125 3.0108 10.2043 2.66328 10.5546L1.24096 11.9756C0.526404 12.692 0.125122 13.6626 0.125122 14.6744C0.125122 15.6862 0.526404 16.6568 1.24096 17.3731L2.66328 18.7928C3.01112 19.1436 3.20713 19.617 3.20902 20.111V21.7755C3.2104 22.7875 3.61309 23.7576 4.32877 24.473C5.04444 25.1884 6.01466 25.5908 7.02661 25.5918H8.68858C8.93342 25.5914 9.17594 25.6393 9.40216 25.733C9.62839 25.8267 9.83384 25.9642 10.0067 26.1376L11.4264 27.5586C12.1426 28.2735 13.1132 28.675 14.1252 28.675C15.1371 28.675 16.1077 28.2735 16.8239 27.5586L18.2436 26.1376C18.4165 25.9642 18.6219 25.8267 18.8481 25.733C19.0744 25.6393 19.3169 25.5914 19.5617 25.5918H21.225C22.237 25.5908 23.2072 25.1884 23.9228 24.473C24.6385 23.7576 25.0412 22.7875 25.0426 21.7755V20.111C25.0437 19.6172 25.2399 19.1439 25.5883 18.7942L27.0093 17.3731C27.7239 16.6568 28.1252 15.6862 28.1252 14.6744C28.1252 13.6626 27.7239 12.692 27.0093 11.9756L25.587 10.5559Z" fill="#FE0201"/>
<path d="M14.1256 23.4652C18.9809 23.4652 22.917 19.5292 22.917 14.6738C22.917 9.81839 18.9809 5.88232 14.1256 5.88232C9.27017 5.88232 5.33411 9.81839 5.33411 14.6738C5.33411 19.5292 9.27017 23.4652 14.1256 23.4652Z" fill="#0E286D"/>
<path d="M12.8221 18.2555C12.6938 18.2558 12.5667 18.2306 12.4482 18.1815C12.3297 18.1323 12.2222 18.06 12.1318 17.969L9.52694 15.3641C9.35439 15.1789 9.26046 14.934 9.26492 14.6809C9.26939 14.4279 9.37191 14.1864 9.55088 14.0074C9.72985 13.8285 9.9713 13.7259 10.2244 13.7215C10.4774 13.717 10.7224 13.811 10.9075 13.9835L12.8221 15.8968L17.3416 11.3786C17.5267 11.2061 17.7717 11.1121 18.0247 11.1166C18.2778 11.1211 18.5192 11.2236 18.6982 11.4026C18.8772 11.5815 18.9797 11.823 18.9842 12.0761C18.9886 12.3291 18.8947 12.574 18.7221 12.7592L13.5124 17.969C13.422 18.06 13.3145 18.1323 13.196 18.1815C13.0775 18.2306 12.9504 18.2558 12.8221 18.2555Z" fill="white"/>
</g>
<defs>
<clipPath id="clip0_0_982">
<rect width="28" height="28" fill="white" transform="translate(0.125122 0.67334)"/>
</clipPath>
</defs>
</svg>
