<svg width="39" height="39" viewBox="0 0 39 39" fill="none" xmlns="http://www.w3.org/2000/svg">
<rect width="39" height="39" fill="#1E1E1E"/>
<g id="Landing Page" clip-path="url(#clip0_1_15)">
<rect width="1440" height="5518" transform="translate(-1187 -1865)" fill="white"/>
<g id="Frame 1618871444">
<g id="Frame 1618871443">
<g id="Frame 1618871400">
<g id="Frame 1618871399">
<g id="Group 1410085066">
<g id="Hand-carry able Items icon">
<circle id="Ellipse 2253" cx="20.2582" cy="20.3179" r="37" fill="#FE0201"/>
<g id="Frame" clip-path="url(#clip1_1_15)">
<g id="Group">
<g id="Group_2">
<path id="Vector" d="M19.6899 6.0593C22.3106 4.74895 30.8278 4.74895 32.1382 6.0593C36.7709 10.692 35.414 17.8524 35.414 17.8524C37.6555 21.3697 38.7961 25.476 38.6899 29.6455V32.2662C38.6724 32.9265 38.5464 33.5795 38.3171 34.199C38.2424 34.4147 38.1123 34.6069 37.9398 34.7564C37.7673 34.9059 37.5585 35.0074 37.3344 35.0507C34.9671 35.4324 32.5699 35.5969 30.1727 35.5421C26.5878 35.5319 23.035 34.8657 19.6899 33.5765C16.3448 34.8657 12.792 35.5319 9.20715 35.5421C6.81017 35.5971 4.41318 35.4328 2.04611 35.0513C1.82199 35.008 1.61319 34.9066 1.44069 34.7571C1.26819 34.6076 1.13806 34.4153 1.06335 34.1996C0.83373 33.58 0.707564 32.9268 0.689906 32.2662V29.6455C0.583666 25.476 1.7243 21.3697 3.96577 17.8524C3.96577 17.8524 2.60891 10.692 7.24163 6.0593C8.55197 4.74895 17.0692 4.74895 19.6899 6.0593Z" fill="white"/>
<path id="Vector_2" d="M36.5016 19.8179H21.6554V34.2579C20.4171 33.8844 19.6899 33.5765 19.6899 33.5765C19.6899 33.5765 18.9627 33.8844 17.7244 34.2579V19.8179H2.87817C3.21231 19.1496 3.57266 18.501 3.96576 17.8524C3.85988 17.2023 3.80077 16.5454 3.78886 15.8868H17.7244V5.4696C18.4025 5.57902 19.0636 5.77754 19.6899 6.05926C20.3162 5.77754 20.9773 5.57902 21.6554 5.4696V15.8868H35.5909C35.579 16.5454 35.5199 17.2023 35.414 17.8524C35.8071 18.501 36.1675 19.1496 36.5016 19.8179Z" fill="white"/>
<path id="Vector_3" d="M36.7244 17.1972H20.3451V4.74892C20.3451 4.57516 20.276 4.40851 20.1532 4.28565C20.0303 4.16278 19.8637 4.09375 19.6899 4.09375C19.5161 4.09375 19.3495 4.16278 19.2266 4.28565C19.1038 4.40851 19.0347 4.57516 19.0347 4.74892V17.1972H2.65542C2.48165 17.1972 2.31501 17.2662 2.19214 17.3891C2.06927 17.512 2.00024 17.6786 2.00024 17.8524C2.00024 18.0261 2.06927 18.1928 2.19214 18.3156C2.31501 18.4385 2.48165 18.5075 2.65542 18.5075H19.0347V34.8869C19.0347 35.0606 19.1038 35.2273 19.2266 35.3501C19.3495 35.473 19.5161 35.542 19.6899 35.542C19.8637 35.542 20.0303 35.473 20.1532 35.3501C20.276 35.2273 20.3451 35.0606 20.3451 34.8869V18.5075H36.7244C36.8981 18.5075 37.0648 18.4385 37.1877 18.3156C37.3105 18.1928 37.3796 18.0261 37.3796 17.8524C37.3796 17.6786 37.3105 17.512 37.1877 17.3891C37.0648 17.2662 36.8981 17.1972 36.7244 17.1972Z" fill="#FE0201"/>
<path id="Vector_4" d="M2.65537 30.3006C2.49397 30.3008 2.33817 30.2414 2.21785 30.1338C2.09753 30.0263 2.02116 29.878 2.00338 29.7176C1.9856 29.5572 2.02766 29.3959 2.1215 29.2645C2.21534 29.1332 2.35436 29.0412 2.51189 29.006C9.12913 27.5181 16.2456 28.9405 16.5457 29.006C16.6317 29.0214 16.7137 29.0539 16.787 29.1015C16.8603 29.1491 16.9233 29.2108 16.9723 29.2831C17.0214 29.3554 17.0554 29.4368 17.0726 29.5225C17.0897 29.6081 17.0895 29.6964 17.072 29.782C17.0546 29.8676 17.0201 29.9488 16.9708 30.0209C16.9214 30.093 16.8582 30.1545 16.7847 30.2018C16.7113 30.2491 16.6291 30.2812 16.543 30.2963C16.457 30.3113 16.3688 30.309 16.2836 30.2895C16.2129 30.2751 9.1311 28.8625 2.80016 30.2895C2.75234 30.298 2.70385 30.3026 2.65537 30.3006ZM36.7243 30.3006C36.6759 30.3006 36.6274 30.2954 36.5795 30.2849C30.248 28.8592 23.1669 30.2731 23.0961 30.2849C23.0109 30.3044 22.9227 30.3067 22.8367 30.2917C22.7506 30.2766 22.6684 30.2445 22.595 30.1972C22.5215 30.1499 22.4583 30.0884 22.4089 30.0163C22.3596 29.9442 22.3252 29.863 22.3077 29.7774C22.2902 29.6918 22.29 29.6036 22.3071 29.5179C22.3243 29.4322 22.3584 29.3508 22.4074 29.2785C22.4564 29.2062 22.5195 29.1445 22.5927 29.0969C22.666 29.0493 22.748 29.0168 22.834 29.0014C23.1341 28.9398 30.2532 27.5161 36.8678 29.0014C37.0309 29.0311 37.1767 29.1216 37.2757 29.2546C37.3748 29.3875 37.4197 29.5531 37.4015 29.7179C37.3833 29.8827 37.3033 30.0344 37.1777 30.1426C37.052 30.2507 36.89 30.3072 36.7243 30.3006Z" fill="#F0F0F0"/>
<path id="Vector_5" d="M10.5172 23.0938H5.27578C4.91394 23.0938 4.62061 23.3871 4.62061 23.7489V25.7144C4.62061 26.0763 4.91394 26.3696 5.27578 26.3696H10.5172C10.879 26.3696 11.1723 26.0763 11.1723 25.7144V23.7489C11.1723 23.3871 10.879 23.0938 10.5172 23.0938Z" fill="white"/>
<path id="Vector_6" d="M26.6716 14.146C26.6716 13.4981 26.4794 12.8647 26.1194 12.326C25.7594 11.7873 25.2478 11.3674 24.6491 11.1195C24.0505 10.8716 23.3918 10.8068 22.7563 10.9332C22.1208 11.0597 21.5371 11.3718 21.079 11.83C20.4522 12.492 19.9778 13.2832 19.6894 14.148C19.401 13.2832 18.9267 12.492 18.2998 11.83C17.9971 11.5195 17.6357 11.2721 17.2366 11.1023C16.8376 10.9325 16.4087 10.8437 15.9751 10.8409C15.5414 10.8381 15.1115 10.9215 14.7103 11.0861C14.3091 11.2508 13.9445 11.4935 13.6379 11.8001C13.3312 12.1068 13.0884 12.4713 12.9237 12.8724C12.759 13.2736 12.6756 13.7035 12.6783 14.1372C12.681 14.5709 12.7698 14.9997 12.9395 15.3988C13.1093 15.7979 13.3566 16.1593 13.6671 16.4621C14.7167 17.3969 16.0097 18.0152 17.3963 18.2455C16.9468 18.5943 16.5706 19.0286 16.2895 19.5233C16.0084 20.018 15.8279 20.5635 15.7584 21.1282C15.7584 21.302 15.8274 21.4686 15.9503 21.5915C16.0731 21.7144 16.2398 21.7834 16.4136 21.7834C16.5873 21.7834 16.754 21.7144 16.8768 21.5915C16.9997 21.4686 17.0687 21.302 17.0687 21.1282C17.0687 20.173 18.7342 18.5075 19.6894 18.5075C20.6447 18.5075 22.3101 20.173 22.3101 21.1282C22.3101 21.302 22.3791 21.4686 22.502 21.5915C22.6249 21.7144 22.7915 21.7834 22.9653 21.7834C23.139 21.7834 23.3057 21.7144 23.4286 21.5915C23.5514 21.4686 23.6205 21.302 23.6205 21.1282C23.5513 20.5637 23.3713 20.0184 23.0908 19.5237C22.8103 19.029 22.4348 18.5946 21.9858 18.2455C23.3714 18.0142 24.6632 17.3955 25.7118 16.4608C26.0169 16.1576 26.2589 15.7969 26.4236 15.3996C26.5884 15.0022 26.6727 14.5762 26.6716 14.146ZM14.0176 14.146C14.0175 13.7572 14.1328 13.3771 14.3488 13.0538C14.5648 12.7305 14.8719 12.4786 15.2311 12.3298C15.5904 12.1811 15.9856 12.1422 16.367 12.2181C16.7483 12.2941 17.0985 12.4814 17.3734 12.7564C18.5573 13.9403 18.8973 16.0631 18.9949 17.1579C17.9008 17.0602 15.7774 16.7202 14.5935 15.5357C14.4103 15.3537 14.2651 15.1371 14.1662 14.8986C14.0674 14.66 14.0169 14.4043 14.0176 14.146ZM24.7853 15.5357C23.6015 16.7202 21.478 17.0602 20.3839 17.1579C20.4815 16.0631 20.8216 13.9403 22.0055 12.7564C22.1874 12.5714 22.4042 12.4243 22.6433 12.3235C22.8823 12.2228 23.139 12.1703 23.3985 12.1692C23.6579 12.1681 23.9151 12.2184 24.155 12.3172C24.3949 12.416 24.6129 12.5613 24.7964 12.7447C24.9799 12.9282 25.1252 13.1461 25.2241 13.386C25.3229 13.6259 25.3732 13.883 25.3722 14.1425C25.3712 14.402 25.3188 14.6586 25.2181 14.8978C25.1174 15.1369 24.9703 15.3537 24.7853 15.5357Z" fill="#FE0201"/>
</g>
</g>
</g>
</g>
</g>
</g>
</g>
</g>
</g>
</g>
<defs>
<clipPath id="clip0_1_15">
<rect width="1440" height="5518" fill="white" transform="translate(-1187 -1865)"/>
</clipPath>
<clipPath id="clip1_1_15">
<rect width="38" height="38" fill="white" transform="translate(0.689941 0.817871)"/>
</clipPath>
</defs>
</svg>
