<?xml version="1.0" encoding="UTF-8" standalone="no"?>
<!-- Generator: Adobe Illustrator 25.4.1, SVG Export Plug-In . SVG Version: 6.00 Build 0)  -->

<svg
   xmlns:dc="http://purl.org/dc/elements/1.1/"
   xmlns:cc="http://creativecommons.org/ns#"
   xmlns:rdf="http://www.w3.org/1999/02/22-rdf-syntax-ns#"
   xmlns:svg="http://www.w3.org/2000/svg"
   xmlns="http://www.w3.org/2000/svg"
   xmlns:sodipodi="http://sodipodi.sourceforge.net/DTD/sodipodi-0.dtd"
   xmlns:inkscape="http://www.inkscape.org/namespaces/inkscape"
   version="1.1"
   id="Layer_1"
   x="0px"
   y="0px"
   viewBox="0 0 365 272"
   xml:space="preserve"
   sodipodi:docname="att-stadium-logo-white-on-blue.svg"
   width="365"
   height="272"
   inkscape:version="0.92.5 (2060ec1f9f, 2020-04-08)"><metadata
   id="metadata14"><rdf:RDF><cc:Work
       rdf:about=""><dc:format>image/svg+xml</dc:format><dc:type
         rdf:resource="http://purl.org/dc/dcmitype/StillImage" /><dc:title></dc:title></cc:Work></rdf:RDF></metadata><defs
   id="defs12" /><sodipodi:namedview
   pagecolor="#ffffff"
   bordercolor="#666666"
   borderopacity="1"
   objecttolerance="10"
   gridtolerance="10"
   guidetolerance="10"
   inkscape:pageopacity="0"
   inkscape:pageshadow="2"
   inkscape:window-width="1920"
   inkscape:window-height="1009"
   id="namedview10"
   showgrid="false"
   fit-margin-top="0"
   fit-margin-left="0"
   fit-margin-right="0"
   fit-margin-bottom="0"
   inkscape:zoom="1.8541911"
   inkscape:cx="292.68482"
   inkscape:cy="80.095056"
   inkscape:window-x="1912"
   inkscape:window-y="70"
   inkscape:window-maximized="1"
   inkscape:current-layer="Layer_1" />
<style
   type="text/css"
   id="style2">
	.st0{fill:#002B5C;}
	.st1{fill:#FFFFFF;}
</style>

<path
   class="st1"
   d="m 150.31992,10.844946 h -7.78462 v 8.325412 h -3.94714 V 7.010874 h 15.56924 v 56.086991 h -9.20997 v -3.943616 h 5.26284 V 10.844946 Z m -5.26285,55.320177 v 3.943617 h 21.48994 V 66.165123 Z M 131.68068,0 v 19.279903 h 3.83749 V 3.943617 h 40.56774 v 15.336286 h 3.94713 V 0 Z m 41.2256,19.170358 V 7.010874 h -15.56924 v 56.086991 h 9.20997 v -3.943616 h -5.26284 V 10.844946 h 7.78462 v 8.325412 z m 62.60589,26.619412 -9.42926,9.420862 7.56533,7.777689 h 4.93392 v -3.943617 h -3.17964 l -3.72784,-3.834072 6.79783,-6.791784 z m -3.28928,20.375353 -8.44248,-8.654048 -8.66176,8.654048 h -24.34064 l -4.60499,-4.600886 V 45.351591 l 0.10965,-0.109545 14.58245,-11.721305 -9.75818,-10.078131 V 9.092227 l 5.26284,-5.258155 h 16.2271 l 5.1532,5.14861 v 15.007652 l -12.17033,9.859042 18.31031,19.170358 9.42926,-9.420862 -2.74107,-2.738622 -6.57855,6.572694 -12.60889,-13.145389 10.3064,-8.434957 V 7.449054 L 214.24151,0 h -19.51637 l -7.45569,7.449054 v 17.527184 l 7.78462,8.215868 -12.82818,10.297221 v 19.827628 l 6.79784,6.791785 h 27.52028 l 7.12676,-7.010875 6.6882,7.010875 h 7.89426 v -3.943617 z m -42.87023,-19.389448 13.70532,-10.954491 18.52958,19.389448 -7.78462,7.887233 h -21.70922 l -2.8507,-2.848167 V 46.775675 Z m 3.94713,12.378574 h 18.85852 l 4.05677,-3.943617 -13.48603,-14.021748 -9.5389,7.449054 v 10.516311 z m 21.38029,-36.587998 -11.29318,8.982682 -8.99068,-9.420862 V 10.406766 l 3.39891,-3.395892 h 13.70532 l 3.28928,3.395892 V 22.566251 Z M 210.8426,10.844946 h -12.6089 v 9.749496 l 5.48213,5.696335 7.12677,-5.696335 z m 41.99309,48.309303 h -5.26285 v 3.943616 h 9.20998 V 7.010874 h -15.56924 v 12.269029 h 3.94713 v -8.434957 h 7.78462 v 48.309303 z m -5.37249,7.010874 v 3.943617 h 21.48994 V 66.165123 Z M 234.08681,0 v 19.279903 h 3.83749 V 3.943617 h 40.56774 v 15.336286 h 3.94713 V 0 Z m 41.33524,19.170358 V 7.010874 h -15.56924 v 56.086991 h 9.20997 V 59.154249 H 263.6903 V 10.844946 h 7.78462 v 8.325412 z M 114.35716,63.097865 h 11.0739 L 120.49715,46.22795 h -24.231 l -4.93392,16.869915 h 10.85461 v -3.943616 h -5.70141 l 2.63142,-9.201772 h 18.41995 l 2.52178,9.201772 h -5.59177 v 3.943616 z m -26.42385,0 17.32352,-59.154248 h 6.03034 l 17.32352,59.154248 h 8.00391 v -3.943616 h -5.1532 L 114.35716,0 H 102.51577 L 85.19225,59.154249 h -5.153199 v 3.943616 z m -8.003902,3.067258 V 70.10874 H 102.0772 v -3.943617 z m 34.427752,0 V 70.10874 H 136.6146 V 66.165123 Z M 108.98468,7.120419 119.40072,43.051148 H 97.03364 L 107.55933,7.120419 Z m 5.37248,31.987112 -5.92069,-22.675795 -6.35927,22.675795 z M 230.90718,91.79863 v -3.83407 h -21.48994 v 3.83407 z m 0,7.01087 v -3.83407 h -9.20997 v 56.08699 h 9.20997 v -3.94361 h -5.26284 V 98.8095 Z m -21.48994,48.30931 v 3.94361 h 9.20998 V 94.97543 h -9.20998 v 3.83407 h 5.26284 v 48.30931 z m 0,7.01087 v 3.83407 h 21.48994 v -3.83407 z m 81.24512,-62.33105 v -3.83407 h -21.48994 v 3.83407 z m -30.91919,7.01087 v -3.83407 h -9.20998 v 52.58156 l 3.50856,3.50543 h 20.83209 l 3.50856,-3.50543 V 94.97543 h -9.20998 v 3.83407 h 5.26285 v 48.30931 H 254.48032 V 98.8095 Z m 21.70922,-3.94361 v 53.89609 l -5.26284,5.25816 h -23.46351 l -5.26284,-5.25816 V 94.86589 h -9.20997 v 3.83407 h 5.26284 v 51.59565 l 7.56534,7.66814 h 26.64313 l 7.67498,-7.55859 v -51.7052 h 5.26284 v -3.83407 z m -21.70922,-3.06726 v -3.83407 h -21.48994 v 3.83407 z m 50.76449,0 0.10964,0.21909 20.83208,44.47523 20.94173,-44.69432 H 365 v -3.83407 h -15.13067 l -18.41995,39.43616 -18.41994,-39.43616 h -15.13067 v 3.83407 z m -12.60889,55.32018 v 3.94361 h 9.20997 V 94.97543 h -9.20997 v 3.83407 h 5.26284 v 48.30931 z M 365,98.69996 v -3.83407 h -9.20997 v 56.08699 H 365 v -3.94362 h -5.26284 v -48.3093 z m -67.10123,55.42972 v 3.94362 h 21.48994 v -3.94362 z m 45.61129,0 v 3.94362 H 365 v -3.94362 z m 5.26284,-7.01087 h -5.26284 v 3.94361 h 9.20998 V 98.48087 l -20.06459,42.72251 h -2.41213 l -0.10965,-0.21909 -19.95494,-42.50342 v 52.47201 h 9.20998 v -3.94362 h -5.26285 v -31.2203 l 13.81496,30.12485 h 7.01713 l 13.81495,-30.12485 z m -197.4662,0 v 3.94361 h 9.20997 V 94.97543 h -9.20997 v 3.94362 h 5.26284 v 48.3093 h -5.26284 z m 40.34845,0.43818 -3.50856,3.50543 H 163.58666 V 94.97543 h 24.55993 l 3.50856,3.50544 z M 187.70802,98.8095 h -20.17423 v 48.30931 h 20.17423 z m 3.39892,-10.95449 H 151.3067 v 3.83408 h 38.1556 l 5.26284,5.25815 v 51.7052 l -5.26284,5.25815 h -38.1556 v 3.94362 h 39.6906 l 7.56533,-7.5586 V 95.30407 Z m -184.528388,0 -6.468909,6.5727 v 26.29078 l 6.797837,6.68223 h 22.91529 v 19.60854 H 11.073896 v -8.5445 H 7.126765 v 12.48812 H 30.26134 l 3.508561,-3.50544 V 126.63391 L 30.809552,123.6762 H 8.552118 L 4.056774,119.18486 V 96.07088 l 4.276059,-4.27225 h 28.616701 v 15.33629 h 3.947132 V 87.85501 Z m 4.495344,28.81031 V 98.8095 h 18.858516 v 8.32542 h 3.947131 V 94.97543 H 9.538901 l -2.412136,2.40999 v 20.4849 l 2.741063,2.73862 h 22.257435 l 4.824271,4.81998 v 23.44261 l -5.372484,5.3677 H 3.947131 V 138.68385 H 0 v 19.49899 h 33.002403 l 7.674978,-7.5586 V 123.6762 l -7.017123,-7.12042 H 11.073896 Z m 54.49234,30.45349 h -5.262842 v 3.94361 h 9.209973 V 94.97543 H 53.834485 v 12.26903 h 3.947131 v -8.32541 h 7.78462 z m -5.372484,7.01087 v 3.94362 h 21.489937 v -3.94362 z M 46.817363,87.85501 v 19.27991 h 3.837488 V 91.79863 H 91.22259 v 15.33629 h 3.94713 V 87.85501 Z M 88.1526,107.13492 V 94.86589 H 72.583358 v 56.08699 h 9.209973 v -3.94362 H 76.53049 v -48.3093 h 7.78462 v 8.32541 h 3.83749 z m 10.08711,43.81796 17.32352,-59.15425 h 6.03034 l 0.10964,0.21909 17.21388,58.93516 h 8.00391 v -3.94362 h -5.1532 L 124.66356,87.85501 h -11.84139 l -17.32352,59.15425 h -5.1532 v 3.94362 z m 26.42385,0 h 11.0739 l -4.93392,-16.86992 h -24.231 l -4.93391,16.86992 h 10.85461 v -3.94362 h -5.70141 l 2.63142,-9.20177 h 18.3103 l 2.52178,9.20177 h -5.59177 z m 0,3.1768 v 3.94362 H 146.921 v -3.94362 z m -34.42775,0 v 3.94362 h 22.14779 v -3.94362 z m 29.05527,-59.15425 10.52568,35.93073 h -22.36708 l 10.52569,-35.93073 z m 5.37248,32.09666 -5.92069,-22.6758 -6.35927,22.6758 z"
   id="path6"
   style="fill:#002b5c;fill-opacity:1;stroke-width:1.09593701"
   inkscape:connector-curvature="0" />
<path
   id="Globe"
   class="st1"
   d="m 154.70562,262.46959 c 7.67497,5.91543 17.32352,9.53041 27.8492,9.53041 11.51247,0 21.92851,-4.27225 29.93241,-11.28313 0.10965,-0.10954 0,-0.10954 0,-0.10954 -3.6182,2.40999 -13.81496,7.5586 -29.93241,7.5586 -13.9246,0.21909 -22.80565,-2.95771 -27.8492,-5.69634 0,-0.10954 -0.10965,0 0,0 m 30.91919,2.40999 c 11.18354,0 23.4635,-3.06726 30.80955,-9.09223 1.97357,-1.64317 3.94714,-3.83407 5.59177,-6.79178 0.98679,-1.64317 1.97357,-3.72453 2.74107,-5.69634 0,-0.10954 0,-0.10954 -0.10965,0 -6.79783,10.07814 -26.64313,16.3222 -47.03664,16.3222 -14.47282,0 -29.93241,-4.60089 -36.0724,-13.47403 -0.10964,-0.10954 -0.10964,0 -0.10964,0 5.81105,12.15949 22.91529,18.73218 44.18594,18.73218 m -12.17032,-20.04672 c -23.24422,0 -34.20847,-10.84494 -36.18204,-18.18445 0,-0.10955 -0.10964,-0.10955 -0.10964,0 0,2.51953 0.21929,5.69633 0.65786,7.77769 0.21928,0.9859 1.09642,2.62908 2.30249,3.94361 5.59177,5.91543 19.62601,14.1313 43.96666,14.1313 33.11204,0 40.67738,-11.06404 42.21237,-14.67902 1.09643,-2.62908 1.64464,-7.22996 1.64464,-11.17358 0,-0.9859 0,-1.75272 -0.10964,-2.40999 0,-0.10954 -0.10964,-0.10954 -0.10964,0 -1.535,8.87314 -29.82277,20.59444 -54.27306,20.59444 m -31.90598,-37.68344 c -1.31571,2.62907 -2.8507,7.12041 -3.28927,9.42086 -0.21929,0.9859 -0.10965,1.42408 0.21928,2.1909 2.74107,5.91542 16.88495,15.33628 49.77771,15.33628 20.06459,0 35.63383,-4.92952 38.15561,-13.9122 0.43857,-1.64317 0.43857,-3.39589 -0.10965,-5.80588 -0.65785,-2.62908 -1.86392,-5.69634 -2.96035,-7.88723 0,-0.10955 -0.10964,-0.10955 -0.10964,0 0.43857,11.83085 -32.45419,19.38944 -49.11985,19.38944 -17.98138,0 -33.00241,-7.12041 -33.00241,-16.21264 0.10965,-0.65727 0.21929,-1.53363 0.43857,-2.51953 0.10965,0 0,0 0,0 m 71.04837,-14.45993 c 0.21928,0.32863 0.32892,0.65727 0.32892,1.09545 0,5.03906 -15.45959,13.9122 -40.01952,13.9122 -18.09102,0 -21.48994,-6.68224 -21.48994,-10.95449 0,-1.53363 0.54821,-3.06726 1.86392,-4.71043 0.10965,-0.10955 0,-0.10955 -0.10964,-0.10955 -2.30249,1.97181 -4.49534,4.27226 -6.35927,6.68224 -0.87714,1.09545 -1.42535,2.1909 -1.42535,2.73863 0,8.87313 22.14779,15.22674 42.87023,15.22674 22.03815,0 31.90598,-7.22997 31.90598,-13.47403 0,-2.30044 -0.87714,-3.61498 -3.17963,-6.13451 -1.535,-1.64317 -2.85071,-2.95771 -4.3857,-4.27225 0,-0.10955 -0.10965,0 0,0 m -6.79784,-5.03907 c -6.79784,-4.05316 -14.6921,-6.3536 -23.24422,-6.3536 -8.55212,0 -16.77531,2.40999 -23.57314,6.57269 -2.08321,1.31454 -3.17964,2.30045 -3.17964,3.61498 0,3.83408 8.99069,7.99678 24.77922,7.99678 15.67888,0 27.8492,-4.49134 27.8492,-8.87313 0.10964,-1.09545 -0.7675,-1.86227 -2.63142,-2.95772"
   style="fill:#002b5c;fill-opacity:1;stroke-width:1.09593701"
   inkscape:connector-curvature="0" />
</svg>