<svg xmlns="http://www.w3.org/2000/svg" width="263.552" height="52.71" viewBox="0 0 263.552 52.71">
  <g id="logo" transform="translate(0.2 0.2)">
    <g id="Group_1" data-name="Group 1" transform="translate(-0.2 -0.2)">
      <path id="Path_1" data-name="Path 1" d="M52.187,79.951a21.3,21.3,0,0,0-3.377-2.607,8.921,8.921,0,0,0-1.007-.592c-.3-.178-.533-.3-.829-.474a22.558,22.558,0,0,0-17.419-1.363,20.067,20.067,0,0,0-4.147,1.837c-.355.178-.711.415-1.007.592a8.919,8.919,0,0,0,1.007.592c.3.178.533.3.829.474A22.843,22.843,0,0,0,36.605,80.9a22.213,22.213,0,0,0,7.051-1.126A20.067,20.067,0,0,0,47.8,77.937a21.452,21.452,0,0,1,3.5,2.607c.3.3.652.592.948.948.3-.178.592-.415.889-.592A7.166,7.166,0,0,0,52.187,79.951Zm-8.828-1.185a21.706,21.706,0,0,1-16.827-1.422,21.371,21.371,0,0,1,3.377-1.422,21.743,21.743,0,0,1,16.827,1.422A18.583,18.583,0,0,1,43.359,78.766Z" transform="translate(-9.825 -30.144)" fill="#13b1ac"/>
      <path id="Path_2" data-name="Path 2" d="M81.631,33.707c-.118-.355-.178-.652-.3-1.007-.415.178-.77.415-1.185.592a23.586,23.586,0,0,0-3.555,2.429c-.3.237-.592.533-.889.77A22.592,22.592,0,0,0,68.3,53.259a22.311,22.311,0,0,0,.474,4.5c.059.415.178.77.237,1.126.3-.237.592-.533.889-.77a24.215,24.215,0,0,0,4.918-6.458,22.34,22.34,0,0,0,2.014-14.871,29.9,29.9,0,0,1,3.555-2.548Zm-7.7,17.537a22.505,22.505,0,0,1-4.207,5.688,24.915,24.915,0,0,1-.3-3.673A21.843,21.843,0,0,1,76,37.677,22.027,22.027,0,0,1,73.929,51.245Z" transform="translate(-27.715 -13.406)" fill="#13b1ac"/>
      <path id="Path_3" data-name="Path 3" d="M65.737,18.463A22.731,22.731,0,0,0,55.368,7.621a24.508,24.508,0,0,0-7.762-2.37A19.861,19.861,0,0,1,46.3,1.1a10.048,10.048,0,0,1-.237-1.3H45a10.046,10.046,0,0,0,.237,1.3,23.219,23.219,0,0,0,1.185,4.088c.118.355.3.711.474,1.126A22.6,22.6,0,0,0,60.582,18.522a23.8,23.8,0,0,0,4.444.948c.415.059.77.059,1.185.118A6.421,6.421,0,0,0,65.737,18.463Zm-4.8-1.007A21.832,21.832,0,0,1,48.14,6.377,21.951,21.951,0,0,1,64.552,18.285,24.611,24.611,0,0,1,60.938,17.456Z" transform="translate(-18.22 0.2)" fill="#13b1ac"/>
      <path id="Path_4" data-name="Path 4" d="M23.973,8.918a23.8,23.8,0,0,0-4.444.948A22.793,22.793,0,0,0,5.843,22.072a21.691,21.691,0,0,1-4.384-.059c-.415-.059-.889-.118-1.3-.178-.118.355-.237.711-.355,1.007.415.059.889.118,1.3.178a21.969,21.969,0,0,0,2.785.178,12.384,12.384,0,0,0,1.481-.059,8.029,8.029,0,0,0,1.185-.118,22.906,22.906,0,0,0,15.819-9.243,26.067,26.067,0,0,0,2.311-3.91c.178-.355.3-.711.474-1.066C24.744,8.859,24.329,8.859,23.973,8.918Zm-2.429,4.266a21.532,21.532,0,0,1-14.457,8.71,21.66,21.66,0,0,1,12.8-11.079A18.811,18.811,0,0,1,23.5,9.985,28.8,28.8,0,0,1,21.544,13.184Z" transform="translate(0.2 -3.468)" fill="#13b1ac"/>
      <path id="Path_5" data-name="Path 5" d="M11.089,41.847A20.518,20.518,0,0,0,8.067,38.47c-.3-.237-.592-.533-.889-.77-.118.355-.178.77-.3,1.185a22.78,22.78,0,0,0,6.932,21.329,20.167,20.167,0,0,1-1.422,4.147,7.374,7.374,0,0,1-.592,1.185c.3.237.533.415.829.652a7.373,7.373,0,0,0,.592-1.185,23.191,23.191,0,0,0,1.422-4.029,6.99,6.99,0,0,0,.237-1.185c.059-.3.118-.652.178-.948A22.377,22.377,0,0,0,11.089,41.847ZM8.541,50.083a22.447,22.447,0,0,1-.77-10.428A22.117,22.117,0,0,1,10.2,42.44a21.7,21.7,0,0,1,3.91,16.234c0,.059-.059.178-.059.237A21.142,21.142,0,0,1,8.541,50.083Z" transform="translate(-2.498 -15.443)" fill="#13b1ac"/>
    </g>
    <g id="Group_2" data-name="Group 2" transform="translate(72.038 8.051)">
      <path id="Path_6" data-name="Path 6" d="M137.856,14.77a2.041,2.041,0,0,1-.059.533l-2.548,13.035a1.11,1.11,0,0,1-1.066.592,1.1,1.1,0,0,1-1.126-.889l-3.2-11.494H129.8L126.362,28.4a1.165,1.165,0,0,1-1.007.533,1.055,1.055,0,0,1-1.126-.948l-2.37-12.738a1.667,1.667,0,0,1-.059-.474.747.747,0,0,1,.77-.77c.474,0,.711.3.77.77l2.074,12.087h.059l3.555-12.5a1.044,1.044,0,0,1,.889-.355.81.81,0,0,1,.889.711L134.124,26.8h.059l2.074-11.968a.8.8,0,0,1,.829-.829A.714.714,0,0,1,137.856,14.77Z" transform="translate(-121.8 -13.882)" fill="#12283f"/>
      <path id="Path_7" data-name="Path 7" d="M165.506,28.968c-3.91,0-5.806-2.785-5.806-7.465,0-4.858,2.074-7.7,5.806-7.7,3.851,0,5.806,2.785,5.806,7.465C171.313,26.005,169.357,28.968,165.506,28.968Zm-.178-13.686a3.8,3.8,0,0,0-2.192.592c-1.126.829-1.777,2.844-1.777,5.392,0,3.97,1.363,6.28,4.384,6.28a3.95,3.95,0,0,0,2.311-.652c.948-.77,1.659-2.607,1.659-5.273C169.713,17.651,168.41,15.281,165.329,15.281Z" transform="translate(-137.245 -13.8)" fill="#12283f"/>
      <path id="Path_8" data-name="Path 8" d="M201.739,28.931a1.116,1.116,0,0,1-1.007-.652l-7.051-11.553h-.059V28.1c0,.533-.3.829-.711.829s-.711-.3-.711-.829V14.592a.889.889,0,0,1,.948-.592,1.1,1.1,0,0,1,1.007.592l7.051,11.613h.059V14.829c0-.533.3-.829.711-.829s.711.3.711.829V28.338A.993.993,0,0,1,201.739,28.931Z" transform="translate(-150.489 -13.882)" fill="#12283f"/>
      <path id="Path_9" data-name="Path 9" d="M227.71,28.853h-2.548c-.711,0-1.363-.237-1.363-1.363V15.344c0-.829.415-1.244,1.3-1.244h2.251c4.681,0,6.754,3.2,6.754,7.406C234.168,25.713,231.976,28.853,227.71,28.853Zm-.178-13.212H225.4V27.372h2.133a5.785,5.785,0,0,0,3.081-.711,6.657,6.657,0,0,0,1.955-4.977C232.569,18.366,231.028,15.64,227.533,15.64Z" transform="translate(-163.367 -13.922)" fill="#12283f"/>
      <path id="Path_10" data-name="Path 10" d="M261.447,28.894h-5.984a1.189,1.189,0,0,1-1.363-1.244V15.444a1.189,1.189,0,0,1,1.363-1.244h5.747a.763.763,0,0,1,.829.77c0,.415-.3.711-.829.711H255.7v5.155h5.214a.713.713,0,1,1,0,1.422H255.7v5.155h5.747a.754.754,0,0,1,.829.711A.839.839,0,0,1,261.447,28.894Z" transform="translate(-175.714 -13.963)" fill="#12283f"/>
      <path id="Path_11" data-name="Path 11" d="M288.887,28.242a.7.7,0,0,1-.711.77.985.985,0,0,1-.829-.592l-2.725-5.451-.533.059H281.6v5.155a.777.777,0,0,1-.829.829.763.763,0,0,1-.77-.829v-12.8c0-.889.356-1.185,1.244-1.185h2.844c3.2,0,4.8,1.6,4.8,4.266a4.316,4.316,0,0,1-2.844,4.147l2.666,5.155A.673.673,0,0,1,288.887,28.242Zm-3.2-6.932a2.985,2.985,0,0,0,1.6-2.725c0-2.014-1.363-2.962-3.2-2.962H281.6v5.984h1.9A6.446,6.446,0,0,0,285.688,21.31Z" transform="translate(-186.269 -13.963)" fill="#12283f"/>
      <path id="Path_12" data-name="Path 12" d="M329.087,15.463l-4.325,7.288v5.392a.777.777,0,0,1-.829.829.763.763,0,0,1-.77-.829V22.75l-4.325-7.228a1.458,1.458,0,0,1-.237-.652.716.716,0,0,1,.77-.77.836.836,0,0,1,.711.474l3.91,6.636,3.91-6.577a.8.8,0,0,1,.711-.533.72.72,0,0,1,.711.711A1.243,1.243,0,0,1,329.087,15.463Z" transform="translate(-201.999 -13.922)" fill="#12283f"/>
      <path id="Path_13" data-name="Path 13" d="M355.547,28.894h-5.984a1.189,1.189,0,0,1-1.363-1.244V15.444a1.189,1.189,0,0,1,1.363-1.244h5.747a.763.763,0,0,1,.829.77c0,.415-.3.711-.829.711H349.8v5.155h5.214a.713.713,0,1,1,0,1.422H349.8v5.155h5.747a.754.754,0,0,1,.829.711A.839.839,0,0,1,355.547,28.894Z" transform="translate(-214.062 -13.963)" fill="#12283f"/>
      <path id="Path_14" data-name="Path 14" d="M384.153,28.3a.735.735,0,0,1-.77.711.866.866,0,0,1-.829-.533l-1.422-4.266h-5.569l-1.422,4.266a.785.785,0,0,1-.77.533.735.735,0,0,1-.77-.711.856.856,0,0,1,.118-.415l4.621-13.272a1.285,1.285,0,0,1,1.066-.415,1.085,1.085,0,0,1,1.126.889L383.976,28C384.153,28,384.153,28.183,384.153,28.3Zm-3.377-5.51L378.466,15.8h-.059L376.1,22.791Z" transform="translate(-224.005 -13.963)" fill="#12283f"/>
      <path id="Path_15" data-name="Path 15" d="M412.787,28.242a.7.7,0,0,1-.711.77.985.985,0,0,1-.829-.592l-2.725-5.451-.533.059H405.5v5.155a.777.777,0,0,1-.829.829.763.763,0,0,1-.77-.829v-12.8c0-.889.355-1.185,1.244-1.185h2.844c3.2,0,4.8,1.6,4.8,4.266a4.316,4.316,0,0,1-2.844,4.147l2.666,5.155A.673.673,0,0,1,412.787,28.242Zm-3.14-6.932a2.985,2.985,0,0,0,1.6-2.725c0-2.014-1.363-2.962-3.2-2.962h-2.488v5.984h1.9A6.7,6.7,0,0,0,409.647,21.31Z" transform="translate(-236.761 -13.963)" fill="#12283f"/>
      <path id="Path_16" data-name="Path 16" d="M433.951,28.968a7.24,7.24,0,0,1-3.318-.889.785.785,0,0,1-.533-.77.685.685,0,0,1,.711-.711,3.4,3.4,0,0,1,.829.237,7.676,7.676,0,0,0,2.725.652,3.57,3.57,0,0,0,2.192-.652,2.289,2.289,0,0,0,.652-1.6c0-1.481-.948-2.251-3.2-3.436s-3.614-2.133-3.614-4.266,1.777-3.733,4.562-3.733a6.133,6.133,0,0,1,2.9.652.838.838,0,0,1,.415.711.651.651,0,0,1-.711.711,2.52,2.52,0,0,1-.652-.118,7.153,7.153,0,0,0-2.429-.415,3.084,3.084,0,0,0-1.955.533,2.216,2.216,0,0,0-.592,1.481c0,1.54,1.185,2.192,2.962,3.2,2.488,1.3,3.851,2.37,3.851,4.5C438.81,27.309,436.854,28.968,433.951,28.968Z" transform="translate(-247.438 -13.8)" fill="#12283f"/>
    </g>
    <g id="Group_3" data-name="Group 3" transform="translate(71.233 32.84)">
      <path id="Path_17" data-name="Path 17" d="M125.263,65.255c-1.422,5.036-1.422,5.392-1.3,5.451.178.178,1.007.118,1.481.237.178.059.118.3,0,.237-.533-.059-1.6-.059-2.607-.059-1.066,0-1.718,0-2.311.059-.118,0-.178-.237,0-.237.474-.118,1.066-.118,1.363-.237.178-.118.415-.592,2.074-6.34,1.659-5.806,1.718-6.28,1.54-6.4a8.117,8.117,0,0,0-1.185-.237c-.178-.059-.118-.3,0-.237.533.059,1.955.118,3.022.118s1.54-.118,2.014-.118c2.311,0,3.436,1.185,3.436,2.844C132.906,62.826,129.706,65.966,125.263,65.255ZM129,57.967a2.647,2.647,0,0,0-1.422.237c-.178.059-.711,1.6-2.074,6.4-.059.178-.059.237.059.3a5.391,5.391,0,0,0,1.244.118c2.074,0,4.384-2.37,4.384-4.918A1.979,1.979,0,0,0,129,57.967Z" transform="translate(-120.411 -56.546)" fill="#656564"/>
      <path id="Path_18" data-name="Path 18" d="M143.61,68.437c-.829,0-.711-1.3-1.659-1.3a1.151,1.151,0,0,0-1.007,1.126c0,1.066,1.9,3.2,1.9,4.5a2.545,2.545,0,0,1-2.725,2.311c-1.185,0-2.014-.829-2.014-1.363a.683.683,0,0,1,.711-.711c1.007,0,.592,1.718,1.955,1.718.533,0,1.007-.77,1.007-1.3,0-1.126-1.777-2.725-1.777-4.325a2.708,2.708,0,0,1,2.666-2.488c.829,0,1.6.592,1.6,1.185A.618.618,0,0,1,143.61,68.437Z" transform="translate(-127.619 -60.26)" fill="#656564"/>
      <path id="Path_19" data-name="Path 19" d="M145.655,79.89c-1.363,0-1.955-.474-1.955-1.066a.76.76,0,0,1,.77-.829c1.007,0,.592,1.422,1.659,1.422a4.493,4.493,0,0,0,2.666-1.54,4.607,4.607,0,0,0,1.363-3.614c0-2.962-.711-6.7-1.718-6.7-.415,0-.889,1.481-1.066,1.6-.059.059-.178.059-.178,0,.3-1.422.948-2.607,1.955-2.607,1.422,0,2.37,3.851,2.192,8,0,.059.178.118.178.059,1.3-2.37,1.718-3.851,1.837-7.465a.609.609,0,0,1,.592-.652.586.586,0,0,1,.652.711C154.305,72.188,149.032,79.89,145.655,79.89Z" transform="translate(-129.901 -60.22)" fill="#656564"/>
      <path id="Path_20" data-name="Path 20" d="M169.406,68.377c-.948,0-.77-1.126-1.718-1.126-1.244,0-2.666,2.844-2.666,5.451,0,1.007.474,1.481,1.363,1.481a3.238,3.238,0,0,0,2.429-1.659c.059-.059.178-.059.118.059a3.943,3.943,0,0,1-3.081,2.548,2.246,2.246,0,0,1-2.251-2.488c0-2.37,2.429-6.043,5.1-6.043,1.066,0,1.422.652,1.422,1.066C170.177,68.14,169.821,68.377,169.406,68.377Z" transform="translate(-138.011 -60.26)" fill="#656564"/>
      <path id="Path_21" data-name="Path 21" d="M178.188,70.712c-.533,0-1.126-.355-1.126-.829a.711.711,0,0,1,.652-.711c.711,0,.77,1.007,1.126,1.007,1.007,0,2.429-3.97,2.429-5.925q0-1.066-.711-1.066c-1.6,0-3.91,4.088-5.1,7.228q-.089.178-.711.178c-.355,0-.652-.059-.652-.178,1.837-4.8,3.436-9.124,4.681-12.738.3-.889-.059-1.3-1.481-1.3-.178,0-.118-.237,0-.237,1.007-.118,3.14-.237,3.318-.237s.237.118.118.355c-1.54,3.97-3.259,8.354-3.733,9.894a.1.1,0,1,0,.178.059c1.659-3.14,2.9-3.97,3.97-3.97.829,0,1.54.592,1.54,2.074C182.691,66.446,180.5,70.712,178.188,70.712Z" transform="translate(-142.29 -55.9)" fill="#656564"/>
      <path id="Path_22" data-name="Path 22" d="M191.594,72.22c-.77,0-.948-.77-.474-1.777l2.014-4.384c.415-.889.415-1.3-.059-1.3s-1.363.829-1.955,1.659c-.059.059-.178,0-.118-.059.355-1.126,2.014-2.666,3.022-2.666,1.066,0,1.066,1.185.178,3.081l-1.54,3.14c-.415.889-.3,1.066.118,1.066s1.9-1.363,2.074-1.363c.059,0,.118.059.059.118C194.675,70.087,192.661,72.22,191.594,72.22Zm3.2-10.783a.576.576,0,0,1-.592-.652c0-.474.474-1.185,1.007-1.185a.6.6,0,0,1,.592.652C195.8,60.726,195.386,61.437,194.794,61.437Z" transform="translate(-149.119 -57.408)" fill="#656564"/>
      <path id="Path_23" data-name="Path 23" d="M205.066,72.278c-.355,1.066-.3,1.3.059,1.3.533,0,1.54-1.363,1.718-1.363.059,0,.059.059.059.118-.652,1.185-2.014,2.488-2.785,2.488a.471.471,0,0,1-.533-.533,5.513,5.513,0,0,1,.3-1.422l.355-1.244c0-.059-.178-.118-.237-.059-1.185,2.014-2.429,3.318-3.436,3.318a1.392,1.392,0,0,1-1.363-1.54c0-2.785,3.2-6.754,5.392-6.754a2.291,2.291,0,0,1,1.007.237c.118.059.118.118.178,0,.237-.355.474-.652.592-.889.178-.237.948.059.889.178Zm-.355-5.451c-1.6,0-4.029,4.207-4.029,5.925,0,.652.3,1.007.711,1.007a2.147,2.147,0,0,0,1.422-.889A15.447,15.447,0,0,0,205.48,67.6.689.689,0,0,0,204.71,66.827Z" transform="translate(-152.519 -59.954)" fill="#656564"/>
      <path id="Path_24" data-name="Path 24" d="M219.872,66.651a15.123,15.123,0,0,0-1.9-.059c-.652,1.777-1.481,3.97-2.014,5.332-.3.829-.059,1.126.178,1.126.711,0,2.133-1.837,2.311-1.837.059,0,.118.059.059.118-.592.948-2.074,2.9-3.318,2.9-.415,0-1.244-.415-.711-1.777.711-1.777,1.54-4.029,2.133-5.866-.77,0-.948.059-1.54.059-.178,0-.237-.592.059-.533a13.435,13.435,0,0,0,1.659.059c.237-.652.415-1.244.592-1.659.059-.118.178-.118.3-.118.355,0,1.185.118,1.126.3-.178.415-.355.889-.592,1.481a14.013,14.013,0,0,0,1.777-.059C220.109,66.118,220.109,66.711,219.872,66.651Z" transform="translate(-158.675 -59.364)" fill="#656564"/>
      <path id="Path_25" data-name="Path 25" d="M230.434,68.533c-.829,0-.474-1.007-.948-1.007-.533,0-1.481,1.126-4.088,7.228-.059.118-.415.178-.711.178-.355,0-.652,0-.592-.178a35.6,35.6,0,0,0,2.014-6.458c0-.415-.118-.533-.3-.533-.592,0-1.363,1.422-1.54,1.54-.059,0-.178,0-.118-.059.474-1.066,1.54-2.785,2.488-2.785.533,0,.711.592.711,1.185a14.685,14.685,0,0,1-1.007,3.97c-.059.059.178.118.178.059,1.481-3.673,2.607-5.273,3.733-5.273a.98.98,0,0,1,1.007,1.066A.919.919,0,0,1,230.434,68.533Z" transform="translate(-162.661 -60.179)" fill="#656564"/>
      <path id="Path_26" data-name="Path 26" d="M237.594,72.22c-.77,0-.948-.77-.474-1.777l2.014-4.384c.415-.889.415-1.3-.059-1.3s-1.363.829-1.955,1.659c-.059.059-.178,0-.118-.059.355-1.126,2.014-2.666,3.022-2.666,1.066,0,1.066,1.185.178,3.081l-1.54,3.14c-.415.889-.3,1.066.118,1.066s1.9-1.363,2.074-1.363c.059,0,.118.059.059.118C240.675,70.087,238.661,72.22,237.594,72.22Zm3.14-10.783a.576.576,0,0,1-.592-.652,1.26,1.26,0,0,1,1.066-1.185.6.6,0,0,1,.592.652A1.26,1.26,0,0,1,240.734,61.437Z" transform="translate(-167.865 -57.408)" fill="#656564"/>
      <path id="Path_27" data-name="Path 27" d="M251.406,68.377c-.948,0-.77-1.126-1.718-1.126-1.244,0-2.666,2.844-2.666,5.451,0,1.007.474,1.481,1.363,1.481a3.238,3.238,0,0,0,2.429-1.659c.059-.059.178-.059.118.059a3.943,3.943,0,0,1-3.081,2.548,2.246,2.246,0,0,1-2.251-2.488c0-2.37,2.429-6.043,5.1-6.043,1.066,0,1.422.652,1.422,1.066C252.177,68.14,251.821,68.377,251.406,68.377Z" transform="translate(-171.427 -60.26)" fill="#656564"/>
      <path id="Path_28" data-name="Path 28" d="M273.739,60.833c-.059.178-.237.059-.237,0-.059-2.429-.474-3.318-1.9-3.318A2.6,2.6,0,0,0,269,60.181c0,2.9,3.733,3.792,3.733,7.11,0,2.192-2.014,4.088-4.858,4.088a9.221,9.221,0,0,1-3.5-.889,18.5,18.5,0,0,1,.533-3.2c0-.118.237-.118.237-.059.118,2.666,1.126,3.733,3.2,3.733a2.738,2.738,0,0,0,2.844-2.844c0-3.081-3.673-3.91-3.673-7.051a4.24,4.24,0,0,1,4.444-3.97,5.289,5.289,0,0,1,2.488.652A20.967,20.967,0,0,1,273.739,60.833Z" transform="translate(-179.066 -56.389)" fill="#656564"/>
      <path id="Path_29" data-name="Path 29" d="M282.7,70.747a5.13,5.13,0,0,0-.474,2.074,1.151,1.151,0,0,0,1.244,1.244,4.193,4.193,0,0,0,2.666-1.481c.059-.059.178,0,.119.118a4.6,4.6,0,0,1-3.436,2.429A1.97,1.97,0,0,1,280.8,72.88c0-2.311,2.251-6.28,4.74-6.28a1.5,1.5,0,0,1,1.659,1.363C287.2,69.5,285.007,70.747,282.7,70.747Zm2.725-3.792c-.829,0-1.9,1.244-2.666,3.555,2.37-.3,3.318-1.659,3.318-2.725C286.073,67.252,285.836,66.955,285.421,66.955Z" transform="translate(-185.772 -60.26)" fill="#656564"/>
      <path id="Path_30" data-name="Path 30" d="M299.234,68.533c-.829,0-.474-1.007-.948-1.007-.533,0-1.481,1.126-4.088,7.228-.059.118-.415.178-.711.178-.355,0-.652,0-.592-.178a35.6,35.6,0,0,0,2.014-6.458c0-.415-.119-.533-.3-.533-.593,0-1.363,1.422-1.54,1.54-.059,0-.178,0-.118-.059.474-1.066,1.54-2.785,2.488-2.785.533,0,.711.592.711,1.185a14.685,14.685,0,0,1-1.007,3.97c-.059.059.178.118.178.059,1.481-3.673,2.607-5.273,3.733-5.273a.98.98,0,0,1,1.007,1.066A.919.919,0,0,1,299.234,68.533Z" transform="translate(-190.698 -60.179)" fill="#656564"/>
      <path id="Path_31" data-name="Path 31" d="M309.351,73.491c.592,0,1.54-.77,2.37-2.074a3.855,3.855,0,0,0,.592-1.9c0-.533-.119-1.066-.119-1.659,0-.711.415-1.3.829-1.3.474,0,.711.237.711,1.007a10.593,10.593,0,0,1-1.837,4.147c-1.3,2.074-2.548,3.318-3.673,3.318-.711,0-1.185-.711-1.185-1.777a10.5,10.5,0,0,1,2.074-5.332.114.114,0,0,0-.059-.178,14.4,14.4,0,0,1-1.6,0c-1.126,0-1.481.474-1.481.948,0,.415.829.415.829.948a.5.5,0,0,1-.533.533c-.415,0-.77-.415-.77-1.007a2.441,2.441,0,0,1,2.548-2.607A14.658,14.658,0,0,0,310.3,66.5c.059,0,.237.118.178.237a7.709,7.709,0,0,0-2.133,4.74C308.285,73.136,308.818,73.491,309.351,73.491Z" transform="translate(-195.838 -60.22)" fill="#656564"/>
      <path id="Path_32" data-name="Path 32" d="M321.794,72.22c-.77,0-.948-.77-.474-1.777l2.014-4.384c.415-.889.415-1.3-.059-1.3s-1.363.829-1.955,1.659c-.059.059-.178,0-.118-.059.355-1.126,2.014-2.666,3.022-2.666,1.066,0,1.066,1.185.178,3.081l-1.6,3.14c-.415.889-.3,1.066.118,1.066s1.9-1.363,2.074-1.363c.059,0,.118.059.059.118C324.875,70.087,322.861,72.22,321.794,72.22Zm3.2-10.783a.576.576,0,0,1-.592-.652c0-.474.474-1.185,1.007-1.185a.6.6,0,0,1,.592.652A1.153,1.153,0,0,1,324.994,61.437Z" transform="translate(-202.178 -57.408)" fill="#656564"/>
      <path id="Path_33" data-name="Path 33" d="M335.706,68.377c-.948,0-.77-1.126-1.718-1.126-1.244,0-2.666,2.844-2.666,5.451,0,1.007.474,1.481,1.363,1.481a3.238,3.238,0,0,0,2.429-1.659c.059-.059.178-.059.118.059a3.943,3.943,0,0,1-3.081,2.548,2.246,2.246,0,0,1-2.251-2.488c0-2.37,2.429-6.043,5.1-6.043,1.066,0,1.422.652,1.422,1.066C336.477,68.14,336.121,68.377,335.706,68.377Z" transform="translate(-205.781 -60.26)" fill="#656564"/>
      <path id="Path_34" data-name="Path 34" d="M343.2,70.747a5.129,5.129,0,0,0-.474,2.074,1.151,1.151,0,0,0,1.244,1.244,4.193,4.193,0,0,0,2.666-1.481c.059-.059.178,0,.119.118a4.6,4.6,0,0,1-3.436,2.429A1.97,1.97,0,0,1,341.3,72.88c0-2.311,2.251-6.28,4.74-6.28a1.5,1.5,0,0,1,1.659,1.363C347.7,69.5,345.507,70.747,343.2,70.747Zm2.725-3.792c-.829,0-1.9,1.244-2.666,3.555,2.37-.3,3.318-1.659,3.318-2.725C346.573,67.252,346.4,66.955,345.921,66.955Z" transform="translate(-210.427 -60.26)" fill="#656564"/>
      <path id="Path_35" data-name="Path 35" d="M357.31,68.437c-.829,0-.711-1.3-1.659-1.3a1.151,1.151,0,0,0-1.007,1.126c0,1.066,1.9,3.2,1.9,4.5a2.545,2.545,0,0,1-2.725,2.311c-1.185,0-2.014-.829-2.014-1.363a.683.683,0,0,1,.711-.711c1.007,0,.592,1.718,1.955,1.718.533,0,1.007-.77,1.007-1.3,0-1.126-1.777-2.725-1.777-4.325a2.708,2.708,0,0,1,2.666-2.488c.829,0,1.6.592,1.6,1.185A.7.7,0,0,1,357.31,68.437Z" transform="translate(-214.706 -60.26)" fill="#656564"/>
    </g>
  </g>
</svg>
